%TF.GenerationSoftware,KiCad,Pcbnew,10.0.2*%
%TF.CreationDate,2026-05-25T12:52:55-07:00*%
%TF.ProjectId,SPWM Rebuild,5350574d-2052-4656-9275-696c642e6b69,rev?*%
%TF.SameCoordinates,Original*%
%TF.FileFunction,Copper,L1,Top*%
%TF.FilePolarity,Positive*%
%FSLAX46Y46*%
G04 Gerber Fmt 4.6, Leading zero omitted, Abs format (unit mm)*
G04 Created by KiCad (PCBNEW 10.0.2) date 2026-05-25 12:52:55*
%MOMM*%
%LPD*%
G01*
G04 APERTURE LIST*
G04 Aperture macros list*
%AMRoundRect*
0 Rectangle with rounded corners*
0 $1 Rounding radius*
0 $2 $3 $4 $5 $6 $7 $8 $9 X,Y pos of 4 corners*
0 Add a 4 corners polygon primitive as box body*
4,1,4,$2,$3,$4,$5,$6,$7,$8,$9,$2,$3,0*
0 Add four circle primitives for the rounded corners*
1,1,$1+$1,$2,$3*
1,1,$1+$1,$4,$5*
1,1,$1+$1,$6,$7*
1,1,$1+$1,$8,$9*
0 Add four rect primitives between the rounded corners*
20,1,$1+$1,$2,$3,$4,$5,0*
20,1,$1+$1,$4,$5,$6,$7,0*
20,1,$1+$1,$6,$7,$8,$9,0*
20,1,$1+$1,$8,$9,$2,$3,0*%
G04 Aperture macros list end*
%TA.AperFunction,ComponentPad*%
%ADD10RoundRect,0.250000X0.550000X-0.550000X0.550000X0.550000X-0.550000X0.550000X-0.550000X-0.550000X0*%
%TD*%
%TA.AperFunction,ComponentPad*%
%ADD11C,1.600000*%
%TD*%
%TA.AperFunction,ComponentPad*%
%ADD12C,1.400000*%
%TD*%
%TA.AperFunction,ComponentPad*%
%ADD13RoundRect,0.250000X-0.550000X0.550000X-0.550000X-0.550000X0.550000X-0.550000X0.550000X0.550000X0*%
%TD*%
%TA.AperFunction,ComponentPad*%
%ADD14C,1.200000*%
%TD*%
%TA.AperFunction,ComponentPad*%
%ADD15RoundRect,0.250000X-0.550000X-0.550000X0.550000X-0.550000X0.550000X0.550000X-0.550000X0.550000X0*%
%TD*%
%TA.AperFunction,ComponentPad*%
%ADD16RoundRect,0.250000X0.750000X-0.750000X0.750000X0.750000X-0.750000X0.750000X-0.750000X-0.750000X0*%
%TD*%
%TA.AperFunction,ComponentPad*%
%ADD17C,2.000000*%
%TD*%
%TA.AperFunction,ComponentPad*%
%ADD18RoundRect,0.250000X-0.750000X0.750000X-0.750000X-0.750000X0.750000X-0.750000X0.750000X0.750000X0*%
%TD*%
%TA.AperFunction,Conductor*%
%ADD19C,0.700000*%
%TD*%
G04 APERTURE END LIST*
D10*
%TO.P,ICL8038_2,1,SWA_1*%
%TO.N,unconnected-(ICL8038_2-SWA-Pad1)*%
X76990000Y-87500000D03*
D11*
%TO.P,ICL8038_2,2,SWO_2*%
%TO.N,Net-(ICL8038_2-SWO)*%
X79530000Y-87500000D03*
%TO.P,ICL8038_2,3,TWO_3*%
%TO.N,unconnected-(ICL8038_2-TWO-Pad3)*%
X82070000Y-87500000D03*
%TO.P,ICL8038_2,4,D_ADJ1_4*%
%TO.N,Net-(ICL8038_2-D_ADJ1)*%
X84610000Y-87500000D03*
%TO.P,ICL8038_2,5,D_ADJ2_5*%
%TO.N,Net-(ICL8038_2-D_ADJ2)*%
X87150000Y-87500000D03*
%TO.P,ICL8038_2,6,V+_6*%
%TO.N,+12V*%
X89690000Y-87500000D03*
%TO.P,ICL8038_2,7,FMOFFSET_7*%
%TO.N,Net-(ICL8038_2-FMOFFSET)*%
X92230000Y-87500000D03*
%TO.P,ICL8038_2,8,FMSWEEP_8*%
X92230000Y-79880000D03*
%TO.P,ICL8038_2,9,SQUARE_9*%
%TO.N,unconnected-(ICL8038_2-SQUARE-Pad9)*%
X89690000Y-79880000D03*
%TO.P,ICL8038_2,10,CAP_10*%
%TO.N,Net-(ICL8038_2-CAP)*%
X87150000Y-79880000D03*
%TO.P,ICL8038_2,11,V-_11*%
%TO.N,-12V*%
X84610000Y-79880000D03*
%TO.P,ICL8038_2,12,SWA2_12*%
%TO.N,unconnected-(ICL8038_2-SWA2-Pad12)*%
X82070000Y-79880000D03*
%TO.P,ICL8038_2,13,NC_13*%
%TO.N,unconnected-(ICL8038_2-NC-Pad13)*%
X79530000Y-79880000D03*
%TO.P,ICL8038_2,14,NC_14*%
%TO.N,unconnected-(ICL8038_2-NC-Pad14)*%
X76990000Y-79880000D03*
%TD*%
D12*
%TO.P,R5,1*%
%TO.N,Net-(U1D-+)*%
X107500000Y-56500000D03*
%TO.P,R5,2*%
%TO.N,Net-(U1A--)*%
X107500000Y-64120000D03*
%TD*%
%TO.P,R4,1*%
%TO.N,GND*%
X111000000Y-56500000D03*
%TO.P,R4,2*%
%TO.N,Net-(U1A--)*%
X111000000Y-64120000D03*
%TD*%
D13*
%TO.P,ICL8038,1,SWA_1*%
%TO.N,unconnected-(ICL8038-SWA-Pad1)*%
X91270000Y-56880000D03*
D11*
%TO.P,ICL8038,2,SWO_2*%
%TO.N,unconnected-(ICL8038-SWO-Pad2)*%
X88730000Y-56880000D03*
%TO.P,ICL8038,3,TWO_3*%
%TO.N,Net-(ICL8038-TWO)*%
X86190000Y-56880000D03*
%TO.P,ICL8038,4,D_ADJ1_4*%
%TO.N,Net-(ICL8038-D_ADJ1)*%
X83650000Y-56880000D03*
%TO.P,ICL8038,5,D_ADJ2_5*%
%TO.N,Net-(ICL8038-D_ADJ2)*%
X81110000Y-56880000D03*
%TO.P,ICL8038,6,V+_6*%
%TO.N,+12V*%
X78570000Y-56880000D03*
%TO.P,ICL8038,7,FMOFFSET_7*%
%TO.N,Net-(ICL8038-FMOFFSET)*%
X76030000Y-56880000D03*
%TO.P,ICL8038,8,FMSWEEP_8*%
X76030000Y-64500000D03*
%TO.P,ICL8038,9,SQUARE_9*%
%TO.N,unconnected-(ICL8038-SQUARE-Pad9)*%
X78570000Y-64500000D03*
%TO.P,ICL8038,10,CAP_10*%
%TO.N,Net-(ICL8038-CAP)*%
X81110000Y-64500000D03*
%TO.P,ICL8038,11,V-_11*%
%TO.N,-12V*%
X83650000Y-64500000D03*
%TO.P,ICL8038,12,SWA2_12*%
%TO.N,unconnected-(ICL8038-SWA2-Pad12)*%
X86190000Y-64500000D03*
%TO.P,ICL8038,13,NC_13*%
%TO.N,unconnected-(ICL8038-NC-Pad13)*%
X88730000Y-64500000D03*
%TO.P,ICL8038,14,NC_14*%
%TO.N,unconnected-(ICL8038-NC-Pad14)*%
X91270000Y-64500000D03*
%TD*%
D12*
%TO.P,R9,1*%
%TO.N,GND*%
X109190000Y-86690000D03*
%TO.P,R9,2*%
%TO.N,Net-(U1B--)*%
X109190000Y-79070000D03*
%TD*%
%TO.P,R7,1*%
%TO.N,+12V*%
X97690000Y-79070000D03*
%TO.P,R7,2*%
%TO.N,Net-(ICL8038_2-D_ADJ2)*%
X97690000Y-86690000D03*
%TD*%
%TO.P,R12,1*%
%TO.N,Net-(U1C--)*%
X130000000Y-73190000D03*
%TO.P,R12,2*%
%TO.N,SenWave2*%
X130000000Y-80810000D03*
%TD*%
D14*
%TO.P,C1,1*%
%TO.N,Net-(ICL8038-CAP)*%
X81440000Y-70880000D03*
%TO.P,C1,2*%
%TO.N,-12V*%
X82940000Y-70880000D03*
%TD*%
D12*
%TO.P,R13,1*%
%TO.N,Net-(R13-Pad1)*%
X134070000Y-67000000D03*
%TO.P,R13,2*%
%TO.N,Net-(U2B--)*%
X141690000Y-67000000D03*
%TD*%
D15*
%TO.P,U1,1*%
%TO.N,Net-(U1D-+)*%
X115690000Y-63610000D03*
D11*
%TO.P,U1,2,-_2*%
%TO.N,Net-(U1A--)*%
X115690000Y-66150000D03*
%TO.P,U1,3,+_3*%
%TO.N,Net-(U1A-+)*%
X115690000Y-68690000D03*
%TO.P,U1,4,V+_4*%
%TO.N,+12V*%
X115690000Y-71230000D03*
%TO.P,U1,5,+_5*%
%TO.N,Net-(U1B-+)*%
X115690000Y-73770000D03*
%TO.P,U1,6,-_6*%
%TO.N,Net-(U1B--)*%
X115690000Y-76310000D03*
%TO.P,U1,7*%
%TO.N,SenWave*%
X115690000Y-78850000D03*
%TO.P,U1,8,NC_8*%
%TO.N,unconnected-(U1A-NC-Pad8)*%
X115690000Y-81390000D03*
%TO.P,U1,9,NC_9*%
%TO.N,unconnected-(U1A-NC-Pad9)*%
X123310000Y-81390000D03*
%TO.P,U1,10*%
%TO.N,SenWave2*%
X123310000Y-78850000D03*
%TO.P,U1,11,-_11*%
%TO.N,Net-(U1C--)*%
X123310000Y-76310000D03*
%TO.P,U1,12,+_12*%
%TO.N,GND*%
X123310000Y-73770000D03*
%TO.P,U1,13,V-_13*%
X123310000Y-71230000D03*
%TO.P,U1,14,+_14*%
%TO.N,Net-(U1D-+)*%
X123310000Y-68690000D03*
%TO.P,U1,15,-_15*%
%TO.N,SenWave2*%
X123310000Y-66150000D03*
%TO.P,U1,16*%
%TO.N,Net-(R14-Pad1)*%
X123310000Y-63610000D03*
%TD*%
D12*
%TO.P,R16,1*%
%TO.N,Net-(U2B--)*%
X133380000Y-71500000D03*
%TO.P,R16,2*%
%TO.N,SPWM*%
X141000000Y-71500000D03*
%TD*%
D16*
%TO.P,J-Output,1,Pin_1_1*%
%TO.N,SenWave2*%
X144500000Y-81580000D03*
D17*
%TO.P,J-Output,2,Pin_2_2*%
%TO.N,SPWM*%
X144500000Y-79040000D03*
%TO.P,J-Output,3,Pin_3_3*%
%TO.N,SenWave*%
X144500000Y-76500000D03*
%TD*%
D12*
%TO.P,R11,1*%
%TO.N,SenWave*%
X115690000Y-87000000D03*
%TO.P,R11,2*%
%TO.N,Net-(U1C--)*%
X123310000Y-87000000D03*
%TD*%
D10*
%TO.P,U2,1*%
%TO.N,Net-(R13-Pad1)*%
X131300000Y-62500000D03*
D11*
%TO.P,U2,2,-_2*%
%TO.N,Net-(U1D-+)*%
X133840000Y-62500000D03*
%TO.P,U2,3,+_3*%
%TO.N,SenWave*%
X136380000Y-62500000D03*
%TO.P,U2,4,V+_4*%
%TO.N,+12V*%
X138920000Y-62500000D03*
%TO.P,U2,5,+_5*%
%TO.N,Net-(U2B-+)*%
X141460000Y-62500000D03*
%TO.P,U2,6,-_6*%
%TO.N,Net-(U2B--)*%
X144000000Y-62500000D03*
%TO.P,U2,7*%
%TO.N,SPWM*%
X146540000Y-62500000D03*
%TO.P,U2,8,NC_8*%
%TO.N,unconnected-(U2A-NC-Pad8)*%
X149080000Y-62500000D03*
%TO.P,U2,9,NC_9*%
%TO.N,unconnected-(U2A-NC-Pad9)*%
X149080000Y-54880000D03*
%TO.P,U2,10*%
%TO.N,N/C*%
X146540000Y-54880000D03*
%TO.P,U2,11*%
X144000000Y-54880000D03*
%TO.P,U2,12*%
X141460000Y-54880000D03*
%TO.P,U2,13,V-_13*%
%TO.N,GND*%
X138920000Y-54880000D03*
%TO.P,U2,14*%
%TO.N,N/C*%
X136380000Y-54880000D03*
%TO.P,U2,15*%
X133840000Y-54880000D03*
%TO.P,U2,16*%
X131300000Y-54880000D03*
%TD*%
D12*
%TO.P,R14,1*%
%TO.N,Net-(R14-Pad1)*%
X126500000Y-63380000D03*
%TO.P,R14,2*%
%TO.N,Net-(U2B-+)*%
X126500000Y-71000000D03*
%TD*%
%TO.P,R6,1*%
%TO.N,+12V*%
X101190000Y-79070000D03*
%TO.P,R6,2*%
%TO.N,Net-(ICL8038_2-D_ADJ1)*%
X101190000Y-86690000D03*
%TD*%
%TO.P,R2,1*%
%TO.N,+12V*%
X100690000Y-64190000D03*
%TO.P,R2,2*%
%TO.N,Net-(ICL8038-D_ADJ2)*%
X100690000Y-56570000D03*
%TD*%
%TO.P,R10,1*%
%TO.N,SenWave*%
X112690000Y-86690000D03*
%TO.P,R10,2*%
%TO.N,Net-(U1B--)*%
X112690000Y-79070000D03*
%TD*%
%TO.P,R8,1*%
%TO.N,Net-(ICL8038_2-SWO)*%
X105190000Y-86690000D03*
%TO.P,R8,2*%
%TO.N,Net-(U1B-+)*%
X105190000Y-79070000D03*
%TD*%
D18*
%TO.P,J-Input,1,Pin_1_1*%
%TO.N,+12V*%
X67000000Y-70420000D03*
D17*
%TO.P,J-Input,2,Pin_2_2*%
%TO.N,-12V*%
X67000000Y-72960000D03*
%TO.P,J-Input,3,Pin_3_3*%
%TO.N,GND*%
X67000000Y-75500000D03*
%TD*%
D12*
%TO.P,R3,1*%
%TO.N,Net-(ICL8038-TWO)*%
X104000000Y-56570000D03*
%TO.P,R3,2*%
%TO.N,Net-(U1A-+)*%
X104000000Y-64190000D03*
%TD*%
%TO.P,R1,1*%
%TO.N,+12V*%
X97690000Y-64190000D03*
%TO.P,R1,2*%
%TO.N,Net-(ICL8038-D_ADJ1)*%
X97690000Y-56570000D03*
%TD*%
%TO.P,R15,1*%
%TO.N,Net-(U2B-+)*%
X127500000Y-80810000D03*
%TO.P,R15,2*%
%TO.N,GND*%
X127500000Y-73190000D03*
%TD*%
D14*
%TO.P,C2,1*%
%TO.N,-12V*%
X86690000Y-75130000D03*
%TO.P,C2,2*%
%TO.N,Net-(ICL8038_2-CAP)*%
X86690000Y-76630000D03*
%TD*%
%TO.N,+12V*%
D19*
X120500000Y-61000000D02*
X122000000Y-59500000D01*
X120500000Y-66420000D02*
X120500000Y-61000000D01*
X138920000Y-60920000D02*
X138920000Y-62500000D01*
X122000000Y-59500000D02*
X137500000Y-59500000D01*
X115690000Y-71230000D02*
X120500000Y-66420000D01*
X137500000Y-59500000D02*
X138920000Y-60920000D01*
%TO.N,GND*%
X124270000Y-73770000D02*
X123310000Y-73770000D01*
X125500000Y-87500000D02*
X125500000Y-75000000D01*
X112000000Y-89500000D02*
X123500000Y-89500000D01*
X123500000Y-89500000D02*
X125500000Y-87500000D01*
X125500000Y-75000000D02*
X124270000Y-73770000D01*
X109190000Y-86690000D02*
X112000000Y-89500000D01*
%TO.N,SenWave2*%
X122350000Y-78850000D02*
X123310000Y-78850000D01*
X123310000Y-66150000D02*
X120000000Y-69460000D01*
X120000000Y-69460000D02*
X120000000Y-76500000D01*
X120000000Y-76500000D02*
X122350000Y-78850000D01*
%TD*%
M02*
