%TF.GenerationSoftware,KiCad,Pcbnew,10.0.2*%
%TF.CreationDate,2026-05-25T12:52:55-07:00*%
%TF.ProjectId,SPWM Rebuild,5350574d-2052-4656-9275-696c642e6b69,rev?*%
%TF.SameCoordinates,Original*%
%TF.FileFunction,Copper,L2,Bot*%
%TF.FilePolarity,Positive*%
%FSLAX46Y46*%
G04 Gerber Fmt 4.6, Leading zero omitted, Abs format (unit mm)*
G04 Created by KiCad (PCBNEW 10.0.2) date 2026-05-25 12:52:55*
%MOMM*%
%LPD*%
G01*
G04 APERTURE LIST*
G04 Aperture macros list*
%AMRoundRect*
0 Rectangle with rounded corners*
0 $1 Rounding radius*
0 $2 $3 $4 $5 $6 $7 $8 $9 X,Y pos of 4 corners*
0 Add a 4 corners polygon primitive as box body*
4,1,4,$2,$3,$4,$5,$6,$7,$8,$9,$2,$3,0*
0 Add four circle primitives for the rounded corners*
1,1,$1+$1,$2,$3*
1,1,$1+$1,$4,$5*
1,1,$1+$1,$6,$7*
1,1,$1+$1,$8,$9*
0 Add four rect primitives between the rounded corners*
20,1,$1+$1,$2,$3,$4,$5,0*
20,1,$1+$1,$4,$5,$6,$7,0*
20,1,$1+$1,$6,$7,$8,$9,0*
20,1,$1+$1,$8,$9,$2,$3,0*%
G04 Aperture macros list end*
%TA.AperFunction,ComponentPad*%
%ADD10RoundRect,0.250000X0.550000X-0.550000X0.550000X0.550000X-0.550000X0.550000X-0.550000X-0.550000X0*%
%TD*%
%TA.AperFunction,ComponentPad*%
%ADD11C,1.600000*%
%TD*%
%TA.AperFunction,ComponentPad*%
%ADD12C,1.400000*%
%TD*%
%TA.AperFunction,ComponentPad*%
%ADD13RoundRect,0.250000X-0.550000X0.550000X-0.550000X-0.550000X0.550000X-0.550000X0.550000X0.550000X0*%
%TD*%
%TA.AperFunction,ComponentPad*%
%ADD14C,1.200000*%
%TD*%
%TA.AperFunction,ComponentPad*%
%ADD15RoundRect,0.250000X-0.550000X-0.550000X0.550000X-0.550000X0.550000X0.550000X-0.550000X0.550000X0*%
%TD*%
%TA.AperFunction,ComponentPad*%
%ADD16RoundRect,0.250000X0.750000X-0.750000X0.750000X0.750000X-0.750000X0.750000X-0.750000X-0.750000X0*%
%TD*%
%TA.AperFunction,ComponentPad*%
%ADD17C,2.000000*%
%TD*%
%TA.AperFunction,ComponentPad*%
%ADD18RoundRect,0.250000X-0.750000X0.750000X-0.750000X-0.750000X0.750000X-0.750000X0.750000X0.750000X0*%
%TD*%
%TA.AperFunction,Conductor*%
%ADD19C,0.700000*%
%TD*%
G04 APERTURE END LIST*
D10*
%TO.P,ICL8038_2,1,SWA_1*%
%TO.N,unconnected-(ICL8038_2-SWA-Pad1)*%
X76990000Y-87500000D03*
D11*
%TO.P,ICL8038_2,2,SWO_2*%
%TO.N,Net-(ICL8038_2-SWO)*%
X79530000Y-87500000D03*
%TO.P,ICL8038_2,3,TWO_3*%
%TO.N,unconnected-(ICL8038_2-TWO-Pad3)*%
X82070000Y-87500000D03*
%TO.P,ICL8038_2,4,D_ADJ1_4*%
%TO.N,Net-(ICL8038_2-D_ADJ1)*%
X84610000Y-87500000D03*
%TO.P,ICL8038_2,5,D_ADJ2_5*%
%TO.N,Net-(ICL8038_2-D_ADJ2)*%
X87150000Y-87500000D03*
%TO.P,ICL8038_2,6,V+_6*%
%TO.N,+12V*%
X89690000Y-87500000D03*
%TO.P,ICL8038_2,7,FMOFFSET_7*%
%TO.N,Net-(ICL8038_2-FMOFFSET)*%
X92230000Y-87500000D03*
%TO.P,ICL8038_2,8,FMSWEEP_8*%
X92230000Y-79880000D03*
%TO.P,ICL8038_2,9,SQUARE_9*%
%TO.N,unconnected-(ICL8038_2-SQUARE-Pad9)*%
X89690000Y-79880000D03*
%TO.P,ICL8038_2,10,CAP_10*%
%TO.N,Net-(ICL8038_2-CAP)*%
X87150000Y-79880000D03*
%TO.P,ICL8038_2,11,V-_11*%
%TO.N,-12V*%
X84610000Y-79880000D03*
%TO.P,ICL8038_2,12,SWA2_12*%
%TO.N,unconnected-(ICL8038_2-SWA2-Pad12)*%
X82070000Y-79880000D03*
%TO.P,ICL8038_2,13,NC_13*%
%TO.N,unconnected-(ICL8038_2-NC-Pad13)*%
X79530000Y-79880000D03*
%TO.P,ICL8038_2,14,NC_14*%
%TO.N,unconnected-(ICL8038_2-NC-Pad14)*%
X76990000Y-79880000D03*
%TD*%
D12*
%TO.P,R5,1*%
%TO.N,Net-(U1D-+)*%
X107500000Y-56500000D03*
%TO.P,R5,2*%
%TO.N,Net-(U1A--)*%
X107500000Y-64120000D03*
%TD*%
%TO.P,R4,1*%
%TO.N,GND*%
X111000000Y-56500000D03*
%TO.P,R4,2*%
%TO.N,Net-(U1A--)*%
X111000000Y-64120000D03*
%TD*%
D13*
%TO.P,ICL8038,1,SWA_1*%
%TO.N,unconnected-(ICL8038-SWA-Pad1)*%
X91270000Y-56880000D03*
D11*
%TO.P,ICL8038,2,SWO_2*%
%TO.N,unconnected-(ICL8038-SWO-Pad2)*%
X88730000Y-56880000D03*
%TO.P,ICL8038,3,TWO_3*%
%TO.N,Net-(ICL8038-TWO)*%
X86190000Y-56880000D03*
%TO.P,ICL8038,4,D_ADJ1_4*%
%TO.N,Net-(ICL8038-D_ADJ1)*%
X83650000Y-56880000D03*
%TO.P,ICL8038,5,D_ADJ2_5*%
%TO.N,Net-(ICL8038-D_ADJ2)*%
X81110000Y-56880000D03*
%TO.P,ICL8038,6,V+_6*%
%TO.N,+12V*%
X78570000Y-56880000D03*
%TO.P,ICL8038,7,FMOFFSET_7*%
%TO.N,Net-(ICL8038-FMOFFSET)*%
X76030000Y-56880000D03*
%TO.P,ICL8038,8,FMSWEEP_8*%
X76030000Y-64500000D03*
%TO.P,ICL8038,9,SQUARE_9*%
%TO.N,unconnected-(ICL8038-SQUARE-Pad9)*%
X78570000Y-64500000D03*
%TO.P,ICL8038,10,CAP_10*%
%TO.N,Net-(ICL8038-CAP)*%
X81110000Y-64500000D03*
%TO.P,ICL8038,11,V-_11*%
%TO.N,-12V*%
X83650000Y-64500000D03*
%TO.P,ICL8038,12,SWA2_12*%
%TO.N,unconnected-(ICL8038-SWA2-Pad12)*%
X86190000Y-64500000D03*
%TO.P,ICL8038,13,NC_13*%
%TO.N,unconnected-(ICL8038-NC-Pad13)*%
X88730000Y-64500000D03*
%TO.P,ICL8038,14,NC_14*%
%TO.N,unconnected-(ICL8038-NC-Pad14)*%
X91270000Y-64500000D03*
%TD*%
D12*
%TO.P,R9,1*%
%TO.N,GND*%
X109190000Y-86690000D03*
%TO.P,R9,2*%
%TO.N,Net-(U1B--)*%
X109190000Y-79070000D03*
%TD*%
%TO.P,R7,1*%
%TO.N,+12V*%
X97690000Y-79070000D03*
%TO.P,R7,2*%
%TO.N,Net-(ICL8038_2-D_ADJ2)*%
X97690000Y-86690000D03*
%TD*%
%TO.P,R12,1*%
%TO.N,Net-(U1C--)*%
X130000000Y-73190000D03*
%TO.P,R12,2*%
%TO.N,SenWave2*%
X130000000Y-80810000D03*
%TD*%
D14*
%TO.P,C1,1*%
%TO.N,Net-(ICL8038-CAP)*%
X81440000Y-70880000D03*
%TO.P,C1,2*%
%TO.N,-12V*%
X82940000Y-70880000D03*
%TD*%
D12*
%TO.P,R13,1*%
%TO.N,Net-(R13-Pad1)*%
X134070000Y-67000000D03*
%TO.P,R13,2*%
%TO.N,Net-(U2B--)*%
X141690000Y-67000000D03*
%TD*%
D15*
%TO.P,U1,1*%
%TO.N,Net-(U1D-+)*%
X115690000Y-63610000D03*
D11*
%TO.P,U1,2,-_2*%
%TO.N,Net-(U1A--)*%
X115690000Y-66150000D03*
%TO.P,U1,3,+_3*%
%TO.N,Net-(U1A-+)*%
X115690000Y-68690000D03*
%TO.P,U1,4,V+_4*%
%TO.N,+12V*%
X115690000Y-71230000D03*
%TO.P,U1,5,+_5*%
%TO.N,Net-(U1B-+)*%
X115690000Y-73770000D03*
%TO.P,U1,6,-_6*%
%TO.N,Net-(U1B--)*%
X115690000Y-76310000D03*
%TO.P,U1,7*%
%TO.N,SenWave*%
X115690000Y-78850000D03*
%TO.P,U1,8,NC_8*%
%TO.N,unconnected-(U1A-NC-Pad8)*%
X115690000Y-81390000D03*
%TO.P,U1,9,NC_9*%
%TO.N,unconnected-(U1A-NC-Pad9)*%
X123310000Y-81390000D03*
%TO.P,U1,10*%
%TO.N,SenWave2*%
X123310000Y-78850000D03*
%TO.P,U1,11,-_11*%
%TO.N,Net-(U1C--)*%
X123310000Y-76310000D03*
%TO.P,U1,12,+_12*%
%TO.N,GND*%
X123310000Y-73770000D03*
%TO.P,U1,13,V-_13*%
X123310000Y-71230000D03*
%TO.P,U1,14,+_14*%
%TO.N,Net-(U1D-+)*%
X123310000Y-68690000D03*
%TO.P,U1,15,-_15*%
%TO.N,SenWave2*%
X123310000Y-66150000D03*
%TO.P,U1,16*%
%TO.N,Net-(R14-Pad1)*%
X123310000Y-63610000D03*
%TD*%
D12*
%TO.P,R16,1*%
%TO.N,Net-(U2B--)*%
X133380000Y-71500000D03*
%TO.P,R16,2*%
%TO.N,SPWM*%
X141000000Y-71500000D03*
%TD*%
D16*
%TO.P,J-Output,1,Pin_1_1*%
%TO.N,SenWave2*%
X144500000Y-81580000D03*
D17*
%TO.P,J-Output,2,Pin_2_2*%
%TO.N,SPWM*%
X144500000Y-79040000D03*
%TO.P,J-Output,3,Pin_3_3*%
%TO.N,SenWave*%
X144500000Y-76500000D03*
%TD*%
D12*
%TO.P,R11,1*%
%TO.N,SenWave*%
X115690000Y-87000000D03*
%TO.P,R11,2*%
%TO.N,Net-(U1C--)*%
X123310000Y-87000000D03*
%TD*%
D10*
%TO.P,U2,1*%
%TO.N,Net-(R13-Pad1)*%
X131300000Y-62500000D03*
D11*
%TO.P,U2,2,-_2*%
%TO.N,Net-(U1D-+)*%
X133840000Y-62500000D03*
%TO.P,U2,3,+_3*%
%TO.N,SenWave*%
X136380000Y-62500000D03*
%TO.P,U2,4,V+_4*%
%TO.N,+12V*%
X138920000Y-62500000D03*
%TO.P,U2,5,+_5*%
%TO.N,Net-(U2B-+)*%
X141460000Y-62500000D03*
%TO.P,U2,6,-_6*%
%TO.N,Net-(U2B--)*%
X144000000Y-62500000D03*
%TO.P,U2,7*%
%TO.N,SPWM*%
X146540000Y-62500000D03*
%TO.P,U2,8,NC_8*%
%TO.N,unconnected-(U2A-NC-Pad8)*%
X149080000Y-62500000D03*
%TO.P,U2,9,NC_9*%
%TO.N,unconnected-(U2A-NC-Pad9)*%
X149080000Y-54880000D03*
%TO.P,U2,10*%
%TO.N,N/C*%
X146540000Y-54880000D03*
%TO.P,U2,11*%
X144000000Y-54880000D03*
%TO.P,U2,12*%
X141460000Y-54880000D03*
%TO.P,U2,13,V-_13*%
%TO.N,GND*%
X138920000Y-54880000D03*
%TO.P,U2,14*%
%TO.N,N/C*%
X136380000Y-54880000D03*
%TO.P,U2,15*%
X133840000Y-54880000D03*
%TO.P,U2,16*%
X131300000Y-54880000D03*
%TD*%
D12*
%TO.P,R14,1*%
%TO.N,Net-(R14-Pad1)*%
X126500000Y-63380000D03*
%TO.P,R14,2*%
%TO.N,Net-(U2B-+)*%
X126500000Y-71000000D03*
%TD*%
%TO.P,R6,1*%
%TO.N,+12V*%
X101190000Y-79070000D03*
%TO.P,R6,2*%
%TO.N,Net-(ICL8038_2-D_ADJ1)*%
X101190000Y-86690000D03*
%TD*%
%TO.P,R2,1*%
%TO.N,+12V*%
X100690000Y-64190000D03*
%TO.P,R2,2*%
%TO.N,Net-(ICL8038-D_ADJ2)*%
X100690000Y-56570000D03*
%TD*%
%TO.P,R10,1*%
%TO.N,SenWave*%
X112690000Y-86690000D03*
%TO.P,R10,2*%
%TO.N,Net-(U1B--)*%
X112690000Y-79070000D03*
%TD*%
%TO.P,R8,1*%
%TO.N,Net-(ICL8038_2-SWO)*%
X105190000Y-86690000D03*
%TO.P,R8,2*%
%TO.N,Net-(U1B-+)*%
X105190000Y-79070000D03*
%TD*%
D18*
%TO.P,J-Input,1,Pin_1_1*%
%TO.N,+12V*%
X67000000Y-70420000D03*
D17*
%TO.P,J-Input,2,Pin_2_2*%
%TO.N,-12V*%
X67000000Y-72960000D03*
%TO.P,J-Input,3,Pin_3_3*%
%TO.N,GND*%
X67000000Y-75500000D03*
%TD*%
D12*
%TO.P,R3,1*%
%TO.N,Net-(ICL8038-TWO)*%
X104000000Y-56570000D03*
%TO.P,R3,2*%
%TO.N,Net-(U1A-+)*%
X104000000Y-64190000D03*
%TD*%
%TO.P,R1,1*%
%TO.N,+12V*%
X97690000Y-64190000D03*
%TO.P,R1,2*%
%TO.N,Net-(ICL8038-D_ADJ1)*%
X97690000Y-56570000D03*
%TD*%
%TO.P,R15,1*%
%TO.N,Net-(U2B-+)*%
X127500000Y-80810000D03*
%TO.P,R15,2*%
%TO.N,GND*%
X127500000Y-73190000D03*
%TD*%
D14*
%TO.P,C2,1*%
%TO.N,-12V*%
X86690000Y-75130000D03*
%TO.P,C2,2*%
%TO.N,Net-(ICL8038_2-CAP)*%
X86690000Y-76630000D03*
%TD*%
%TO.N,Net-(ICL8038_2-SWO)*%
D19*
X105190000Y-86690000D02*
X97880000Y-94000000D01*
X86030000Y-94000000D02*
X79530000Y-87500000D01*
X97880000Y-94000000D02*
X86030000Y-94000000D01*
%TO.N,Net-(ICL8038_2-D_ADJ1)*%
X88500000Y-92500000D02*
X96500000Y-92500000D01*
X101190000Y-87810000D02*
X101190000Y-86690000D01*
X84610000Y-88610000D02*
X88500000Y-92500000D01*
X84610000Y-87500000D02*
X84610000Y-88610000D01*
X96500000Y-92500000D02*
X101190000Y-87810000D01*
%TO.N,Net-(ICL8038_2-D_ADJ2)*%
X97690000Y-88810000D02*
X95120000Y-91380000D01*
X95120000Y-91380000D02*
X89880000Y-91380000D01*
X87150000Y-88650000D02*
X87150000Y-87500000D01*
X89880000Y-91380000D02*
X87150000Y-88650000D01*
X97690000Y-86690000D02*
X97690000Y-88810000D01*
%TO.N,+12V*%
X95000000Y-64190000D02*
X92190000Y-61380000D01*
X96190000Y-77570000D02*
X97690000Y-79070000D01*
X78570000Y-58760000D02*
X78570000Y-56880000D01*
X106730000Y-71230000D02*
X100690000Y-65190000D01*
X95000000Y-64190000D02*
X96190000Y-65380000D01*
X67000000Y-61500000D02*
X73620000Y-54880000D01*
X67000000Y-70420000D02*
X67000000Y-61500000D01*
X100690000Y-64190000D02*
X97690000Y-64190000D01*
X96190000Y-65380000D02*
X96190000Y-77570000D01*
X97095000Y-79070000D02*
X97690000Y-79070000D01*
X81190000Y-61380000D02*
X78570000Y-58760000D01*
X89690000Y-88690000D02*
X90880000Y-89880000D01*
X90880000Y-89880000D02*
X93620000Y-89880000D01*
X92190000Y-61380000D02*
X81190000Y-61380000D01*
X115690000Y-71230000D02*
X106730000Y-71230000D01*
X73620000Y-54880000D02*
X76570000Y-54880000D01*
X89690000Y-87500000D02*
X89690000Y-88690000D01*
X95190000Y-80975000D02*
X97095000Y-79070000D01*
X100690000Y-65190000D02*
X100690000Y-64190000D01*
X97690000Y-64190000D02*
X95000000Y-64190000D01*
X76570000Y-54880000D02*
X78570000Y-56880000D01*
X101190000Y-79070000D02*
X97690000Y-79070000D01*
X93620000Y-89880000D02*
X95190000Y-88310000D01*
X95190000Y-88310000D02*
X95190000Y-80975000D01*
%TO.N,Net-(ICL8038_2-FMOFFSET)*%
X92230000Y-87500000D02*
X92230000Y-79880000D01*
%TO.N,Net-(ICL8038_2-CAP)*%
X87150000Y-79880000D02*
X87150000Y-77090000D01*
X87150000Y-77090000D02*
X86690000Y-76630000D01*
%TO.N,-12V*%
X83690000Y-66880000D02*
X83650000Y-66840000D01*
X76880000Y-76380000D02*
X81190000Y-76380000D01*
X86690000Y-75130000D02*
X85940000Y-74380000D01*
X73460000Y-72960000D02*
X76880000Y-76380000D01*
X67000000Y-72960000D02*
X73460000Y-72960000D01*
X83650000Y-66840000D02*
X83650000Y-64500000D01*
X85940000Y-74380000D02*
X83190000Y-74380000D01*
X84610000Y-79880000D02*
X81150000Y-76420000D01*
X82940000Y-74130000D02*
X82940000Y-70880000D01*
X83190000Y-74380000D02*
X82940000Y-74130000D01*
X82940000Y-67630000D02*
X83690000Y-66880000D01*
X81190000Y-76380000D02*
X83190000Y-74380000D01*
X82940000Y-70880000D02*
X82940000Y-67630000D01*
%TO.N,Net-(U1D-+)*%
X123310000Y-68690000D02*
X135310000Y-68690000D01*
X112000000Y-60500000D02*
X109000000Y-60500000D01*
X107500000Y-59000000D02*
X107500000Y-56500000D01*
X109000000Y-60500000D02*
X107500000Y-59000000D01*
X123310000Y-68690000D02*
X120770000Y-68690000D01*
X136500000Y-67500000D02*
X136500000Y-66000000D01*
X115690000Y-63610000D02*
X115110000Y-63610000D01*
X115110000Y-63610000D02*
X112000000Y-60500000D01*
X136500000Y-66000000D02*
X133840000Y-63340000D01*
X133840000Y-63340000D02*
X133840000Y-62500000D01*
X135310000Y-68690000D02*
X136500000Y-67500000D01*
X120770000Y-68690000D02*
X115690000Y-63610000D01*
%TO.N,Net-(U1A--)*%
X110930000Y-64190000D02*
X111000000Y-64120000D01*
X115690000Y-66150000D02*
X114150000Y-66150000D01*
X107570000Y-64190000D02*
X110930000Y-64190000D01*
X112120000Y-64120000D02*
X111000000Y-64120000D01*
X114150000Y-66150000D02*
X112120000Y-64120000D01*
X107500000Y-64120000D02*
X107570000Y-64190000D01*
%TO.N,GND*%
X138000000Y-52000000D02*
X114000000Y-52000000D01*
X111000000Y-55380000D02*
X111000000Y-56500000D01*
X65000000Y-75000000D02*
X65000000Y-60500000D01*
X125230000Y-73770000D02*
X125810000Y-73190000D01*
X107810000Y-86690000D02*
X109190000Y-86690000D01*
X123310000Y-73770000D02*
X125230000Y-73770000D01*
X73000000Y-81500000D02*
X67000000Y-75500000D01*
X125810000Y-73190000D02*
X127500000Y-73190000D01*
X80000000Y-95500000D02*
X73000000Y-88500000D01*
X138920000Y-54880000D02*
X138920000Y-53080000D01*
X107810000Y-86690000D02*
X99000000Y-95500000D01*
X65000000Y-60500000D02*
X73500000Y-52000000D01*
X107620000Y-52000000D02*
X110810000Y-55190000D01*
X110810000Y-55190000D02*
X111000000Y-55380000D01*
X73500000Y-52000000D02*
X107620000Y-52000000D01*
X139000000Y-53000000D02*
X138000000Y-52000000D01*
X67000000Y-75500000D02*
X65500000Y-75500000D01*
X123310000Y-71230000D02*
X123310000Y-73770000D01*
X138920000Y-53080000D02*
X139000000Y-53000000D01*
X65500000Y-75500000D02*
X65000000Y-75000000D01*
X73000000Y-88500000D02*
X73000000Y-81500000D01*
X99000000Y-95500000D02*
X80000000Y-95500000D01*
X114000000Y-52000000D02*
X110810000Y-55190000D01*
%TO.N,Net-(ICL8038-TWO)*%
X101380000Y-59880000D02*
X104000000Y-57260000D01*
X104000000Y-57260000D02*
X104000000Y-56570000D01*
X86190000Y-58880000D02*
X87190000Y-59880000D01*
X86190000Y-56880000D02*
X86190000Y-58880000D01*
X87190000Y-59880000D02*
X101380000Y-59880000D01*
%TO.N,Net-(ICL8038-D_ADJ1)*%
X83650000Y-56880000D02*
X85650000Y-54880000D01*
X85650000Y-54880000D02*
X96000000Y-54880000D01*
X96000000Y-54880000D02*
X97690000Y-56570000D01*
%TO.N,Net-(ICL8038-D_ADJ2)*%
X84490000Y-53500000D02*
X81110000Y-56880000D01*
X100690000Y-55070000D02*
X99120000Y-53500000D01*
X100690000Y-56570000D02*
X100690000Y-55070000D01*
X99120000Y-53500000D02*
X84490000Y-53500000D01*
%TO.N,Net-(ICL8038-FMOFFSET)*%
X76030000Y-64500000D02*
X76030000Y-56880000D01*
%TO.N,Net-(ICL8038-CAP)*%
X81440000Y-70880000D02*
X81440000Y-67130000D01*
X81440000Y-67130000D02*
X81110000Y-66800000D01*
X81110000Y-66800000D02*
X81110000Y-64500000D01*
%TO.N,Net-(U1B--)*%
X115690000Y-76310000D02*
X112930000Y-79070000D01*
X112930000Y-79070000D02*
X112690000Y-79070000D01*
X109190000Y-79070000D02*
X112690000Y-79070000D01*
%TO.N,Net-(U1C--)*%
X123310000Y-87000000D02*
X121000000Y-84690000D01*
X130000000Y-73190000D02*
X130000000Y-74500000D01*
X130000000Y-74500000D02*
X128190000Y-76310000D01*
X121000000Y-84690000D02*
X121000000Y-78060000D01*
X122750000Y-76310000D02*
X123310000Y-76310000D01*
X121000000Y-78060000D02*
X122750000Y-76310000D01*
X128190000Y-76310000D02*
X123310000Y-76310000D01*
%TO.N,SenWave2*%
X130000000Y-80810000D02*
X133810000Y-80810000D01*
X133810000Y-80810000D02*
X134580000Y-81580000D01*
X129500000Y-82500000D02*
X130000000Y-82000000D01*
X125000000Y-79000000D02*
X125500000Y-79500000D01*
X130000000Y-82000000D02*
X130000000Y-80810000D01*
X126000000Y-82500000D02*
X129500000Y-82500000D01*
X123310000Y-78850000D02*
X123460000Y-79000000D01*
X123460000Y-79000000D02*
X125000000Y-79000000D01*
X125500000Y-82000000D02*
X126000000Y-82500000D01*
X125500000Y-79500000D02*
X125500000Y-82000000D01*
X134580000Y-81580000D02*
X144500000Y-81580000D01*
%TO.N,Net-(R13-Pad1)*%
X131300000Y-64230000D02*
X131300000Y-62500000D01*
X134070000Y-67000000D02*
X131300000Y-64230000D01*
%TO.N,Net-(U2B--)*%
X133380000Y-71500000D02*
X137190000Y-71500000D01*
X144000000Y-64690000D02*
X144000000Y-62500000D01*
X141690000Y-67000000D02*
X144000000Y-64690000D01*
X137190000Y-71500000D02*
X141690000Y-67000000D01*
%TO.N,Net-(U1A-+)*%
X115690000Y-68690000D02*
X109190000Y-68690000D01*
X109190000Y-68690000D02*
X104690000Y-64190000D01*
X104690000Y-64190000D02*
X104000000Y-64190000D01*
%TO.N,Net-(U1B-+)*%
X110490000Y-73770000D02*
X105190000Y-79070000D01*
X115690000Y-73770000D02*
X110490000Y-73770000D01*
%TO.N,SenWave*%
X115690000Y-87000000D02*
X113000000Y-87000000D01*
X119500000Y-82660000D02*
X119500000Y-87500000D01*
X144500000Y-76500000D02*
X151500000Y-69500000D01*
X119500000Y-87500000D02*
X121000000Y-89000000D01*
X137880000Y-61000000D02*
X150500000Y-61000000D01*
X147000000Y-82000000D02*
X147000000Y-79000000D01*
X136380000Y-62500000D02*
X137880000Y-61000000D01*
X112690000Y-81850000D02*
X115690000Y-78850000D01*
X123500000Y-89000000D02*
X128500000Y-84000000D01*
X150500000Y-61000000D02*
X151500000Y-62000000D01*
X147000000Y-79000000D02*
X144500000Y-76500000D01*
X121000000Y-89000000D02*
X123500000Y-89000000D01*
X112690000Y-86690000D02*
X112690000Y-81850000D01*
X113000000Y-87000000D02*
X112690000Y-86690000D01*
X128500000Y-84000000D02*
X145000000Y-84000000D01*
X145000000Y-84000000D02*
X147000000Y-82000000D01*
X115690000Y-78850000D02*
X119500000Y-82660000D01*
X151500000Y-69500000D02*
X151500000Y-62000000D01*
%TO.N,Net-(R14-Pad1)*%
X123540000Y-63380000D02*
X123310000Y-63610000D01*
X126500000Y-63380000D02*
X123540000Y-63380000D01*
%TO.N,SPWM*%
X144500000Y-79040000D02*
X141000000Y-75540000D01*
X146540000Y-65960000D02*
X146540000Y-62500000D01*
X141000000Y-75540000D02*
X141000000Y-71500000D01*
X141000000Y-71500000D02*
X146540000Y-65960000D01*
%TO.N,Net-(U2B-+)*%
X130000000Y-71000000D02*
X131000000Y-70000000D01*
X130000000Y-71000000D02*
X126500000Y-71000000D01*
X139500000Y-64460000D02*
X141460000Y-62500000D01*
X131500000Y-72500000D02*
X130000000Y-71000000D01*
X127500000Y-80810000D02*
X131500000Y-76810000D01*
X131000000Y-70000000D02*
X136500000Y-70000000D01*
X139500000Y-67000000D02*
X139500000Y-64460000D01*
X136500000Y-70000000D02*
X139500000Y-67000000D01*
X131500000Y-76810000D02*
X131500000Y-72500000D01*
%TD*%
%TA.AperFunction,Conductor*%
%TO.N,GND*%
G36*
X151004043Y-49000765D02*
G01*
X151252895Y-49017075D01*
X151268953Y-49019190D01*
X151476105Y-49060395D01*
X151509535Y-49067045D01*
X151525202Y-49071243D01*
X151694947Y-49128863D01*
X151757481Y-49150091D01*
X151772458Y-49156294D01*
X151981799Y-49259529D01*
X151992460Y-49264787D01*
X152006506Y-49272897D01*
X152210460Y-49409174D01*
X152223329Y-49419048D01*
X152407749Y-49580781D01*
X152419218Y-49592250D01*
X152580951Y-49776670D01*
X152590825Y-49789539D01*
X152727102Y-49993493D01*
X152735212Y-50007539D01*
X152843702Y-50227534D01*
X152849909Y-50242520D01*
X152928756Y-50474797D01*
X152932954Y-50490464D01*
X152980807Y-50731035D01*
X152982925Y-50747116D01*
X152999235Y-50995956D01*
X152999500Y-51004066D01*
X152999500Y-60724556D01*
X152979815Y-60791595D01*
X152927011Y-60837350D01*
X152857853Y-60847294D01*
X152794297Y-60818269D01*
X152787819Y-60812237D01*
X151656668Y-59681086D01*
X151656663Y-59681082D01*
X151656662Y-59681081D01*
X151656661Y-59681080D01*
X151565636Y-59611235D01*
X151565635Y-59611234D01*
X151474622Y-59541396D01*
X151474613Y-59541390D01*
X151474612Y-59541389D01*
X151275888Y-59426656D01*
X151275886Y-59426655D01*
X151275876Y-59426650D01*
X151072090Y-59342240D01*
X151063887Y-59338842D01*
X150979064Y-59316114D01*
X150979063Y-59316113D01*
X150871156Y-59287200D01*
X150842239Y-59279452D01*
X150842233Y-59279451D01*
X150842232Y-59279451D01*
X150832362Y-59278151D01*
X150815771Y-59275967D01*
X150815770Y-59275966D01*
X150614744Y-59249501D01*
X150614739Y-59249500D01*
X150614734Y-59249500D01*
X137765266Y-59249500D01*
X137765260Y-59249500D01*
X137765255Y-59249501D01*
X137564228Y-59275966D01*
X137564228Y-59275967D01*
X137560215Y-59276495D01*
X137537763Y-59279451D01*
X137400936Y-59316113D01*
X137400936Y-59316114D01*
X137316113Y-59338842D01*
X137316111Y-59338842D01*
X137316110Y-59338843D01*
X137104123Y-59426650D01*
X137104114Y-59426655D01*
X136905389Y-59541387D01*
X136905386Y-59541389D01*
X136905387Y-59541390D01*
X136723333Y-59681085D01*
X136114843Y-60289574D01*
X136053520Y-60323059D01*
X136043349Y-60324832D01*
X135998652Y-60330716D01*
X135949783Y-60337151D01*
X135671155Y-60411809D01*
X135671153Y-60411809D01*
X135671152Y-60411810D01*
X135671139Y-60411814D01*
X135404663Y-60522191D01*
X135404647Y-60522199D01*
X135172000Y-60656519D01*
X135104100Y-60672992D01*
X135048000Y-60656519D01*
X134815352Y-60522199D01*
X134815336Y-60522191D01*
X134548860Y-60411814D01*
X134548848Y-60411810D01*
X134548845Y-60411809D01*
X134270217Y-60337151D01*
X134270211Y-60337150D01*
X134270206Y-60337149D01*
X133984238Y-60299501D01*
X133984233Y-60299500D01*
X133984228Y-60299500D01*
X133695772Y-60299500D01*
X133695766Y-60299500D01*
X133695761Y-60299501D01*
X133409793Y-60337149D01*
X133409786Y-60337150D01*
X133409783Y-60337151D01*
X133266935Y-60375427D01*
X133131155Y-60411809D01*
X133131139Y-60411814D01*
X132864666Y-60522190D01*
X132864653Y-60522196D01*
X132832894Y-60540532D01*
X132764993Y-60557002D01*
X132706108Y-60538871D01*
X132601628Y-60474846D01*
X132601627Y-60474845D01*
X132601623Y-60474843D01*
X132385363Y-60385266D01*
X132361610Y-60375427D01*
X132361611Y-60375427D01*
X132202171Y-60337149D01*
X132108994Y-60314779D01*
X132108992Y-60314778D01*
X132108991Y-60314778D01*
X131948019Y-60302110D01*
X131914853Y-60299500D01*
X131914851Y-60299500D01*
X130685155Y-60299500D01*
X130685140Y-60299501D01*
X130491008Y-60314778D01*
X130238389Y-60375427D01*
X129998376Y-60474843D01*
X129776859Y-60610588D01*
X129579311Y-60779311D01*
X129410588Y-60976859D01*
X129274843Y-61198376D01*
X129175427Y-61438389D01*
X129114778Y-61691009D01*
X129099500Y-61885141D01*
X129099500Y-63114844D01*
X129099501Y-63114859D01*
X129114778Y-63308991D01*
X129175427Y-63561610D01*
X129274843Y-63801623D01*
X129410588Y-64023140D01*
X129519790Y-64150998D01*
X129548361Y-64214759D01*
X129549500Y-64231530D01*
X129549500Y-64344734D01*
X129568473Y-64488842D01*
X129579452Y-64572239D01*
X129597898Y-64641080D01*
X129631886Y-64767928D01*
X129638843Y-64793889D01*
X129638845Y-64793896D01*
X129726652Y-65005881D01*
X129726657Y-65005891D01*
X129841388Y-65204611D01*
X129898811Y-65279447D01*
X129898816Y-65279452D01*
X129981078Y-65386659D01*
X129981084Y-65386666D01*
X131322238Y-66727819D01*
X131355723Y-66789142D01*
X131350739Y-66858834D01*
X131308867Y-66914767D01*
X131243403Y-66939184D01*
X131234557Y-66939500D01*
X125538179Y-66939500D01*
X125471140Y-66919815D01*
X125425385Y-66867011D01*
X125415441Y-66797853D01*
X125418402Y-66783415D01*
X125472849Y-66580217D01*
X125510500Y-66294228D01*
X125510500Y-66005772D01*
X125472849Y-65719783D01*
X125398191Y-65441155D01*
X125398184Y-65441139D01*
X125389993Y-65421363D01*
X125382524Y-65351894D01*
X125413799Y-65289415D01*
X125473887Y-65253762D01*
X125543712Y-65256255D01*
X125566561Y-65266527D01*
X125568975Y-65267921D01*
X125568977Y-65267921D01*
X125568979Y-65267923D01*
X125823368Y-65373295D01*
X126089334Y-65444560D01*
X126362326Y-65480500D01*
X126362333Y-65480500D01*
X126637667Y-65480500D01*
X126637674Y-65480500D01*
X126910666Y-65444560D01*
X127176632Y-65373295D01*
X127431021Y-65267923D01*
X127669479Y-65130249D01*
X127887928Y-64962628D01*
X128082628Y-64767928D01*
X128250249Y-64549479D01*
X128387923Y-64311021D01*
X128493295Y-64056632D01*
X128564560Y-63790666D01*
X128600500Y-63517674D01*
X128600500Y-63242326D01*
X128564560Y-62969334D01*
X128493295Y-62703368D01*
X128387923Y-62448979D01*
X128387921Y-62448976D01*
X128387919Y-62448971D01*
X128331221Y-62350769D01*
X128250249Y-62210521D01*
X128082628Y-61992072D01*
X128082623Y-61992066D01*
X127887933Y-61797376D01*
X127887926Y-61797370D01*
X127669483Y-61629754D01*
X127669482Y-61629753D01*
X127669479Y-61629751D01*
X127516032Y-61541158D01*
X127431028Y-61492080D01*
X127431017Y-61492075D01*
X127176630Y-61386704D01*
X127043649Y-61351072D01*
X126910666Y-61315440D01*
X126910660Y-61315439D01*
X126910655Y-61315438D01*
X126637684Y-61279501D01*
X126637679Y-61279500D01*
X126637674Y-61279500D01*
X126362326Y-61279500D01*
X126362320Y-61279500D01*
X126362315Y-61279501D01*
X126089344Y-61315438D01*
X126089337Y-61315439D01*
X126089334Y-61315440D01*
X126033125Y-61330500D01*
X125823369Y-61386704D01*
X125568982Y-61492075D01*
X125568971Y-61492080D01*
X125359730Y-61612887D01*
X125297730Y-61629500D01*
X124303500Y-61629500D01*
X124256049Y-61620061D01*
X124166319Y-61582894D01*
X124018854Y-61521812D01*
X124018847Y-61521810D01*
X124018845Y-61521809D01*
X123740217Y-61447151D01*
X123740211Y-61447150D01*
X123740206Y-61447149D01*
X123454238Y-61409501D01*
X123454233Y-61409500D01*
X123454228Y-61409500D01*
X123165772Y-61409500D01*
X123165766Y-61409500D01*
X123165761Y-61409501D01*
X122879793Y-61447149D01*
X122879786Y-61447150D01*
X122879783Y-61447151D01*
X122601155Y-61521809D01*
X122601139Y-61521814D01*
X122334663Y-61632191D01*
X122334647Y-61632199D01*
X122084851Y-61776420D01*
X122084835Y-61776431D01*
X121855997Y-61952024D01*
X121855990Y-61952030D01*
X121652030Y-62155990D01*
X121652024Y-62155997D01*
X121476431Y-62384835D01*
X121476420Y-62384851D01*
X121332199Y-62634647D01*
X121332191Y-62634663D01*
X121221814Y-62901139D01*
X121221809Y-62901155D01*
X121147152Y-63179780D01*
X121147149Y-63179793D01*
X121109501Y-63465761D01*
X121109500Y-63465778D01*
X121109500Y-63754221D01*
X121109501Y-63754238D01*
X121147149Y-64040206D01*
X121147150Y-64040211D01*
X121147151Y-64040217D01*
X121221809Y-64318844D01*
X121221814Y-64318860D01*
X121332191Y-64585336D01*
X121332199Y-64585352D01*
X121466519Y-64818000D01*
X121482992Y-64885900D01*
X121466519Y-64942000D01*
X121332199Y-65174647D01*
X121332191Y-65174663D01*
X121221814Y-65441139D01*
X121221809Y-65441155D01*
X121147152Y-65719780D01*
X121147149Y-65719793D01*
X121109501Y-66005761D01*
X121109500Y-66005778D01*
X121109500Y-66254557D01*
X121089815Y-66321596D01*
X121037011Y-66367351D01*
X120967853Y-66377295D01*
X120904297Y-66348270D01*
X120897819Y-66342238D01*
X117926818Y-63371237D01*
X117893333Y-63309914D01*
X117890499Y-63283556D01*
X117890499Y-62995155D01*
X117890498Y-62995140D01*
X117888467Y-62969334D01*
X117875221Y-62801006D01*
X117814573Y-62548390D01*
X117737706Y-62362817D01*
X117715156Y-62308376D01*
X117709717Y-62299501D01*
X117579412Y-62086860D01*
X117410689Y-61889311D01*
X117213140Y-61720588D01*
X116991628Y-61584846D01*
X116991627Y-61584845D01*
X116991623Y-61584843D01*
X116825627Y-61516086D01*
X116751610Y-61485427D01*
X116751611Y-61485427D01*
X116592171Y-61447149D01*
X116498994Y-61424779D01*
X116498992Y-61424778D01*
X116498991Y-61424778D01*
X116304858Y-61409500D01*
X116304853Y-61409500D01*
X115436443Y-61409500D01*
X115369404Y-61389815D01*
X115348762Y-61373181D01*
X113156666Y-59181084D01*
X113156659Y-59181078D01*
X113025582Y-59080500D01*
X113025581Y-59080499D01*
X112974622Y-59041396D01*
X112974616Y-59041392D01*
X112974612Y-59041389D01*
X112893803Y-58994734D01*
X112775891Y-58926657D01*
X112775876Y-58926650D01*
X112563887Y-58838842D01*
X112563879Y-58838839D01*
X112543368Y-58833343D01*
X112543368Y-58833344D01*
X112342239Y-58779452D01*
X112342233Y-58779451D01*
X112342232Y-58779451D01*
X112332362Y-58778151D01*
X112315771Y-58775967D01*
X112315770Y-58775966D01*
X112114744Y-58749501D01*
X112114739Y-58749500D01*
X112114734Y-58749500D01*
X112114727Y-58749500D01*
X109776442Y-58749500D01*
X109709403Y-58729815D01*
X109688761Y-58713181D01*
X109286819Y-58311238D01*
X109253334Y-58249915D01*
X109250500Y-58223557D01*
X109250500Y-57702269D01*
X109267113Y-57640269D01*
X109332896Y-57526331D01*
X109343547Y-57507882D01*
X110345669Y-57507882D01*
X110345670Y-57507883D01*
X110371059Y-57526329D01*
X110539362Y-57612085D01*
X110718997Y-57670451D01*
X110905553Y-57700000D01*
X111094447Y-57700000D01*
X111281002Y-57670451D01*
X111460637Y-57612085D01*
X111628937Y-57526331D01*
X111654328Y-57507883D01*
X111654328Y-57507882D01*
X111000001Y-56853554D01*
X111000000Y-56853554D01*
X110345669Y-57507882D01*
X109343547Y-57507882D01*
X109387923Y-57431021D01*
X109493295Y-57176632D01*
X109564560Y-56910666D01*
X109582537Y-56774115D01*
X109610802Y-56710222D01*
X109669126Y-56671750D01*
X109738991Y-56670918D01*
X109798215Y-56707990D01*
X109827947Y-56770899D01*
X109829547Y-56781000D01*
X109887914Y-56960637D01*
X109973666Y-57128933D01*
X109992116Y-57154328D01*
X110646446Y-56500000D01*
X110646446Y-56499999D01*
X110600369Y-56453922D01*
X110650000Y-56453922D01*
X110650000Y-56546078D01*
X110673852Y-56635095D01*
X110719930Y-56714905D01*
X110785095Y-56780070D01*
X110864905Y-56826148D01*
X110953922Y-56850000D01*
X111046078Y-56850000D01*
X111135095Y-56826148D01*
X111214905Y-56780070D01*
X111280070Y-56714905D01*
X111326148Y-56635095D01*
X111350000Y-56546078D01*
X111350000Y-56499999D01*
X111353554Y-56499999D01*
X111353554Y-56500000D01*
X112007882Y-57154328D01*
X112007883Y-57154328D01*
X112026331Y-57128937D01*
X112112085Y-56960637D01*
X112170451Y-56781002D01*
X112200000Y-56594447D01*
X112200000Y-56405552D01*
X112170451Y-56218997D01*
X112112085Y-56039362D01*
X112026329Y-55871059D01*
X112007883Y-55845670D01*
X112007882Y-55845669D01*
X111353554Y-56499999D01*
X111350000Y-56499999D01*
X111350000Y-56453922D01*
X111326148Y-56364905D01*
X111280070Y-56285095D01*
X111214905Y-56219930D01*
X111135095Y-56173852D01*
X111046078Y-56150000D01*
X110953922Y-56150000D01*
X110864905Y-56173852D01*
X110785095Y-56219930D01*
X110719930Y-56285095D01*
X110673852Y-56364905D01*
X110650000Y-56453922D01*
X110600369Y-56453922D01*
X109992116Y-55845669D01*
X109992116Y-55845670D01*
X109973669Y-55871060D01*
X109887914Y-56039362D01*
X109829547Y-56218998D01*
X109827947Y-56229102D01*
X109798014Y-56292234D01*
X109738700Y-56329162D01*
X109668837Y-56328160D01*
X109610607Y-56289546D01*
X109582537Y-56225883D01*
X109564560Y-56089334D01*
X109493295Y-55823368D01*
X109455451Y-55732005D01*
X109395317Y-55586828D01*
X109395316Y-55586827D01*
X109387926Y-55568985D01*
X109387919Y-55568971D01*
X109343546Y-55492116D01*
X110345669Y-55492116D01*
X111000000Y-56146446D01*
X111000001Y-56146446D01*
X111654328Y-55492116D01*
X111628933Y-55473666D01*
X111460637Y-55387914D01*
X111281002Y-55329548D01*
X111094447Y-55300000D01*
X110905553Y-55300000D01*
X110718997Y-55329548D01*
X110539362Y-55387914D01*
X110371060Y-55473669D01*
X110345670Y-55492116D01*
X110345669Y-55492116D01*
X109343546Y-55492116D01*
X109332894Y-55473666D01*
X109250249Y-55330521D01*
X109082628Y-55112072D01*
X109082623Y-55112066D01*
X108887933Y-54917376D01*
X108887926Y-54917370D01*
X108774179Y-54830089D01*
X108669483Y-54749754D01*
X108669482Y-54749753D01*
X108669479Y-54749751D01*
X108645277Y-54735778D01*
X129099500Y-54735778D01*
X129099500Y-55024221D01*
X129099501Y-55024238D01*
X129137149Y-55310206D01*
X129137150Y-55310211D01*
X129137151Y-55310217D01*
X129211269Y-55586828D01*
X129211809Y-55588844D01*
X129211814Y-55588860D01*
X129322191Y-55855336D01*
X129322199Y-55855352D01*
X129464566Y-56101936D01*
X129466425Y-56105156D01*
X129466429Y-56105162D01*
X129466431Y-56105164D01*
X129642024Y-56334002D01*
X129642030Y-56334009D01*
X129845990Y-56537969D01*
X129845996Y-56537974D01*
X130074844Y-56713575D01*
X130074851Y-56713579D01*
X130324647Y-56857800D01*
X130324663Y-56857808D01*
X130591139Y-56968185D01*
X130591145Y-56968186D01*
X130591155Y-56968191D01*
X130869783Y-57042849D01*
X131155772Y-57080500D01*
X131155779Y-57080500D01*
X131444221Y-57080500D01*
X131444228Y-57080500D01*
X131730217Y-57042849D01*
X132008845Y-56968191D01*
X132008857Y-56968185D01*
X132008860Y-56968185D01*
X132275336Y-56857808D01*
X132275339Y-56857806D01*
X132275345Y-56857804D01*
X132508000Y-56723479D01*
X132575900Y-56707007D01*
X132632000Y-56723480D01*
X132864647Y-56857800D01*
X132864663Y-56857808D01*
X133131139Y-56968185D01*
X133131145Y-56968186D01*
X133131155Y-56968191D01*
X133409783Y-57042849D01*
X133695772Y-57080500D01*
X133695779Y-57080500D01*
X133984221Y-57080500D01*
X133984228Y-57080500D01*
X134270217Y-57042849D01*
X134548845Y-56968191D01*
X134548857Y-56968185D01*
X134548860Y-56968185D01*
X134815336Y-56857808D01*
X134815339Y-56857806D01*
X134815345Y-56857804D01*
X135048000Y-56723479D01*
X135115900Y-56707007D01*
X135172000Y-56723480D01*
X135404647Y-56857800D01*
X135404663Y-56857808D01*
X135671139Y-56968185D01*
X135671145Y-56968186D01*
X135671155Y-56968191D01*
X135949783Y-57042849D01*
X136235772Y-57080500D01*
X136235779Y-57080500D01*
X136524221Y-57080500D01*
X136524228Y-57080500D01*
X136810217Y-57042849D01*
X137088845Y-56968191D01*
X137088857Y-56968185D01*
X137088860Y-56968185D01*
X137355336Y-56857808D01*
X137355339Y-56857806D01*
X137355345Y-56857804D01*
X137605156Y-56713575D01*
X137834004Y-56537974D01*
X138037974Y-56334004D01*
X138213575Y-56105156D01*
X138213581Y-56105145D01*
X138215197Y-56102728D01*
X138215869Y-56102165D01*
X138216046Y-56101936D01*
X138216097Y-56101975D01*
X138268807Y-56057920D01*
X138338131Y-56049209D01*
X138374598Y-56061128D01*
X138420968Y-56084755D01*
X138615582Y-56147990D01*
X138817683Y-56180000D01*
X139022317Y-56180000D01*
X139224417Y-56147990D01*
X139419030Y-56084755D01*
X139465399Y-56061128D01*
X139534068Y-56048231D01*
X139598809Y-56074506D01*
X139624799Y-56102723D01*
X139626423Y-56105154D01*
X139802024Y-56334002D01*
X139802030Y-56334009D01*
X140005990Y-56537969D01*
X140005996Y-56537974D01*
X140234844Y-56713575D01*
X140234851Y-56713579D01*
X140484647Y-56857800D01*
X140484663Y-56857808D01*
X140751139Y-56968185D01*
X140751145Y-56968186D01*
X140751155Y-56968191D01*
X141029783Y-57042849D01*
X141315772Y-57080500D01*
X141315779Y-57080500D01*
X141604221Y-57080500D01*
X141604228Y-57080500D01*
X141890217Y-57042849D01*
X142168845Y-56968191D01*
X142168857Y-56968185D01*
X142168860Y-56968185D01*
X142435336Y-56857808D01*
X142435339Y-56857806D01*
X142435345Y-56857804D01*
X142668000Y-56723479D01*
X142735900Y-56707007D01*
X142792000Y-56723480D01*
X143024647Y-56857800D01*
X143024663Y-56857808D01*
X143291139Y-56968185D01*
X143291145Y-56968186D01*
X143291155Y-56968191D01*
X143569783Y-57042849D01*
X143855772Y-57080500D01*
X143855779Y-57080500D01*
X144144221Y-57080500D01*
X144144228Y-57080500D01*
X144430217Y-57042849D01*
X144708845Y-56968191D01*
X144708857Y-56968185D01*
X144708860Y-56968185D01*
X144975336Y-56857808D01*
X144975339Y-56857806D01*
X144975345Y-56857804D01*
X145208000Y-56723479D01*
X145275900Y-56707007D01*
X145332000Y-56723480D01*
X145564647Y-56857800D01*
X145564663Y-56857808D01*
X145831139Y-56968185D01*
X145831145Y-56968186D01*
X145831155Y-56968191D01*
X146109783Y-57042849D01*
X146395772Y-57080500D01*
X146395779Y-57080500D01*
X146684221Y-57080500D01*
X146684228Y-57080500D01*
X146970217Y-57042849D01*
X147248845Y-56968191D01*
X147248857Y-56968185D01*
X147248860Y-56968185D01*
X147515336Y-56857808D01*
X147515339Y-56857806D01*
X147515345Y-56857804D01*
X147748000Y-56723479D01*
X147815900Y-56707007D01*
X147872000Y-56723480D01*
X148104647Y-56857800D01*
X148104663Y-56857808D01*
X148371139Y-56968185D01*
X148371145Y-56968186D01*
X148371155Y-56968191D01*
X148649783Y-57042849D01*
X148935772Y-57080500D01*
X148935779Y-57080500D01*
X149224221Y-57080500D01*
X149224228Y-57080500D01*
X149510217Y-57042849D01*
X149788845Y-56968191D01*
X149788857Y-56968185D01*
X149788860Y-56968185D01*
X150055336Y-56857808D01*
X150055339Y-56857806D01*
X150055345Y-56857804D01*
X150305156Y-56713575D01*
X150534004Y-56537974D01*
X150737974Y-56334004D01*
X150913575Y-56105156D01*
X151057804Y-55855345D01*
X151061812Y-55845670D01*
X151168185Y-55588860D01*
X151168185Y-55588857D01*
X151168191Y-55588845D01*
X151242849Y-55310217D01*
X151280500Y-55024228D01*
X151280500Y-54735772D01*
X151242849Y-54449783D01*
X151168191Y-54171155D01*
X151168186Y-54171145D01*
X151168185Y-54171139D01*
X151057808Y-53904663D01*
X151057800Y-53904647D01*
X150913579Y-53654851D01*
X150913578Y-53654849D01*
X150913575Y-53654844D01*
X150737974Y-53425996D01*
X150737969Y-53425990D01*
X150534009Y-53222030D01*
X150534002Y-53222024D01*
X150305164Y-53046431D01*
X150305162Y-53046429D01*
X150305156Y-53046425D01*
X150305151Y-53046422D01*
X150305148Y-53046420D01*
X150055352Y-52902199D01*
X150055336Y-52902191D01*
X149788860Y-52791814D01*
X149788848Y-52791810D01*
X149788845Y-52791809D01*
X149510217Y-52717151D01*
X149510211Y-52717150D01*
X149510206Y-52717149D01*
X149224238Y-52679501D01*
X149224233Y-52679500D01*
X149224228Y-52679500D01*
X148935772Y-52679500D01*
X148935766Y-52679500D01*
X148935761Y-52679501D01*
X148649793Y-52717149D01*
X148649786Y-52717150D01*
X148649783Y-52717151D01*
X148371155Y-52791809D01*
X148371139Y-52791814D01*
X148104663Y-52902191D01*
X148104647Y-52902199D01*
X147872000Y-53036519D01*
X147804100Y-53052992D01*
X147748000Y-53036519D01*
X147515352Y-52902199D01*
X147515336Y-52902191D01*
X147248860Y-52791814D01*
X147248848Y-52791810D01*
X147248845Y-52791809D01*
X146970217Y-52717151D01*
X146970211Y-52717150D01*
X146970206Y-52717149D01*
X146684238Y-52679501D01*
X146684233Y-52679500D01*
X146684228Y-52679500D01*
X146395772Y-52679500D01*
X146395766Y-52679500D01*
X146395761Y-52679501D01*
X146109793Y-52717149D01*
X146109786Y-52717150D01*
X146109783Y-52717151D01*
X145831155Y-52791809D01*
X145831139Y-52791814D01*
X145564663Y-52902191D01*
X145564647Y-52902199D01*
X145332000Y-53036519D01*
X145264100Y-53052992D01*
X145208000Y-53036519D01*
X144975352Y-52902199D01*
X144975336Y-52902191D01*
X144708860Y-52791814D01*
X144708848Y-52791810D01*
X144708845Y-52791809D01*
X144430217Y-52717151D01*
X144430211Y-52717150D01*
X144430206Y-52717149D01*
X144144238Y-52679501D01*
X144144233Y-52679500D01*
X144144228Y-52679500D01*
X143855772Y-52679500D01*
X143855766Y-52679500D01*
X143855761Y-52679501D01*
X143569793Y-52717149D01*
X143569786Y-52717150D01*
X143569783Y-52717151D01*
X143291155Y-52791809D01*
X143291139Y-52791814D01*
X143024663Y-52902191D01*
X143024647Y-52902199D01*
X142792000Y-53036519D01*
X142724100Y-53052992D01*
X142668000Y-53036519D01*
X142435352Y-52902199D01*
X142435336Y-52902191D01*
X142168860Y-52791814D01*
X142168848Y-52791810D01*
X142168845Y-52791809D01*
X141890217Y-52717151D01*
X141890211Y-52717150D01*
X141890206Y-52717149D01*
X141604238Y-52679501D01*
X141604233Y-52679500D01*
X141604228Y-52679500D01*
X141315772Y-52679500D01*
X141315766Y-52679500D01*
X141315761Y-52679501D01*
X141029793Y-52717149D01*
X141029786Y-52717150D01*
X141029783Y-52717151D01*
X140751155Y-52791809D01*
X140751139Y-52791814D01*
X140484663Y-52902191D01*
X140484647Y-52902199D01*
X140234851Y-53046420D01*
X140234835Y-53046431D01*
X140005997Y-53222024D01*
X140005990Y-53222030D01*
X139802030Y-53425990D01*
X139802024Y-53425997D01*
X139626420Y-53654849D01*
X139624788Y-53657292D01*
X139624114Y-53657854D01*
X139623954Y-53658064D01*
X139623907Y-53658027D01*
X139571169Y-53702089D01*
X139501843Y-53710786D01*
X139465402Y-53698871D01*
X139419034Y-53675245D01*
X139224417Y-53612009D01*
X139022317Y-53580000D01*
X138817683Y-53580000D01*
X138615582Y-53612009D01*
X138420972Y-53675243D01*
X138420965Y-53675246D01*
X138374597Y-53698872D01*
X138305927Y-53711768D01*
X138241187Y-53685491D01*
X138215197Y-53657272D01*
X138213572Y-53654840D01*
X138037975Y-53425997D01*
X138037969Y-53425990D01*
X137834009Y-53222030D01*
X137834002Y-53222024D01*
X137605164Y-53046431D01*
X137605162Y-53046429D01*
X137605156Y-53046425D01*
X137605151Y-53046422D01*
X137605148Y-53046420D01*
X137355352Y-52902199D01*
X137355336Y-52902191D01*
X137088860Y-52791814D01*
X137088848Y-52791810D01*
X137088845Y-52791809D01*
X136810217Y-52717151D01*
X136810211Y-52717150D01*
X136810206Y-52717149D01*
X136524238Y-52679501D01*
X136524233Y-52679500D01*
X136524228Y-52679500D01*
X136235772Y-52679500D01*
X136235766Y-52679500D01*
X136235761Y-52679501D01*
X135949793Y-52717149D01*
X135949786Y-52717150D01*
X135949783Y-52717151D01*
X135671155Y-52791809D01*
X135671139Y-52791814D01*
X135404663Y-52902191D01*
X135404647Y-52902199D01*
X135172000Y-53036519D01*
X135104100Y-53052992D01*
X135048000Y-53036519D01*
X134815352Y-52902199D01*
X134815336Y-52902191D01*
X134548860Y-52791814D01*
X134548848Y-52791810D01*
X134548845Y-52791809D01*
X134270217Y-52717151D01*
X134270211Y-52717150D01*
X134270206Y-52717149D01*
X133984238Y-52679501D01*
X133984233Y-52679500D01*
X133984228Y-52679500D01*
X133695772Y-52679500D01*
X133695766Y-52679500D01*
X133695761Y-52679501D01*
X133409793Y-52717149D01*
X133409786Y-52717150D01*
X133409783Y-52717151D01*
X133131155Y-52791809D01*
X133131139Y-52791814D01*
X132864663Y-52902191D01*
X132864647Y-52902199D01*
X132632000Y-53036519D01*
X132564100Y-53052992D01*
X132508000Y-53036519D01*
X132275352Y-52902199D01*
X132275336Y-52902191D01*
X132008860Y-52791814D01*
X132008848Y-52791810D01*
X132008845Y-52791809D01*
X131730217Y-52717151D01*
X131730211Y-52717150D01*
X131730206Y-52717149D01*
X131444238Y-52679501D01*
X131444233Y-52679500D01*
X131444228Y-52679500D01*
X131155772Y-52679500D01*
X131155766Y-52679500D01*
X131155761Y-52679501D01*
X130869793Y-52717149D01*
X130869786Y-52717150D01*
X130869783Y-52717151D01*
X130591155Y-52791809D01*
X130591139Y-52791814D01*
X130324663Y-52902191D01*
X130324647Y-52902199D01*
X130074851Y-53046420D01*
X130074835Y-53046431D01*
X129845997Y-53222024D01*
X129845990Y-53222030D01*
X129642030Y-53425990D01*
X129642024Y-53425997D01*
X129466431Y-53654835D01*
X129466420Y-53654851D01*
X129322199Y-53904647D01*
X129322191Y-53904663D01*
X129211814Y-54171139D01*
X129211809Y-54171155D01*
X129137152Y-54449780D01*
X129137149Y-54449793D01*
X129099501Y-54735761D01*
X129099500Y-54735778D01*
X108645277Y-54735778D01*
X108552270Y-54682080D01*
X108431028Y-54612080D01*
X108431017Y-54612075D01*
X108176630Y-54506704D01*
X108037780Y-54469500D01*
X107910666Y-54435440D01*
X107910660Y-54435439D01*
X107910655Y-54435438D01*
X107637684Y-54399501D01*
X107637679Y-54399500D01*
X107637674Y-54399500D01*
X107362326Y-54399500D01*
X107362320Y-54399500D01*
X107362315Y-54399501D01*
X107089344Y-54435438D01*
X107089337Y-54435439D01*
X107089334Y-54435440D01*
X107035816Y-54449780D01*
X106823369Y-54506704D01*
X106568982Y-54612075D01*
X106568971Y-54612080D01*
X106330516Y-54749754D01*
X106112073Y-54917370D01*
X106112066Y-54917376D01*
X105917376Y-55112066D01*
X105821519Y-55236990D01*
X105765091Y-55278192D01*
X105695345Y-55282347D01*
X105634424Y-55248135D01*
X105624774Y-55236998D01*
X105582628Y-55182072D01*
X105582625Y-55182069D01*
X105582622Y-55182065D01*
X105387933Y-54987376D01*
X105387926Y-54987370D01*
X105169483Y-54819754D01*
X105169482Y-54819753D01*
X105169479Y-54819751D01*
X105024034Y-54735778D01*
X104931028Y-54682080D01*
X104931017Y-54682075D01*
X104676630Y-54576704D01*
X104503404Y-54530289D01*
X104410666Y-54505440D01*
X104410660Y-54505439D01*
X104410655Y-54505438D01*
X104137684Y-54469501D01*
X104137679Y-54469500D01*
X104137674Y-54469500D01*
X103862326Y-54469500D01*
X103862320Y-54469500D01*
X103862315Y-54469501D01*
X103589344Y-54505438D01*
X103589337Y-54505439D01*
X103589334Y-54505440D01*
X103533125Y-54520500D01*
X103323369Y-54576704D01*
X103068982Y-54682075D01*
X103068971Y-54682080D01*
X102830516Y-54819754D01*
X102630472Y-54973252D01*
X102565303Y-54998446D01*
X102496858Y-54984407D01*
X102446868Y-54935593D01*
X102432047Y-54891062D01*
X102410548Y-54727762D01*
X102401710Y-54694779D01*
X102398307Y-54682080D01*
X102379550Y-54612075D01*
X102351158Y-54506113D01*
X102350879Y-54505440D01*
X102263347Y-54294118D01*
X102263342Y-54294108D01*
X102192355Y-54171155D01*
X102148611Y-54095388D01*
X102148607Y-54095383D01*
X102148605Y-54095379D01*
X102008918Y-53913338D01*
X101957365Y-53861785D01*
X101846661Y-53751081D01*
X101457575Y-53361995D01*
X100276666Y-52181084D01*
X100276659Y-52181078D01*
X100178469Y-52105735D01*
X100178467Y-52105733D01*
X100094611Y-52041388D01*
X99895891Y-51926657D01*
X99895876Y-51926650D01*
X99683887Y-51838842D01*
X99645215Y-51828480D01*
X99462239Y-51779452D01*
X99462233Y-51779451D01*
X99462232Y-51779451D01*
X99452362Y-51778151D01*
X99435771Y-51775967D01*
X99435770Y-51775966D01*
X99234744Y-51749501D01*
X99234739Y-51749500D01*
X99234734Y-51749500D01*
X84604734Y-51749500D01*
X84375266Y-51749500D01*
X84375265Y-51749500D01*
X84147771Y-51779449D01*
X84147764Y-51779450D01*
X84147761Y-51779451D01*
X84147754Y-51779453D01*
X83964779Y-51828480D01*
X83945447Y-51833661D01*
X83926114Y-51838841D01*
X83926101Y-51838846D01*
X83864019Y-51864560D01*
X83864019Y-51864561D01*
X83736065Y-51917561D01*
X83714107Y-51926657D01*
X83659710Y-51958064D01*
X83614750Y-51984022D01*
X83515395Y-52041384D01*
X83515379Y-52041395D01*
X83431530Y-52105735D01*
X83333340Y-52181078D01*
X83333333Y-52181084D01*
X80844843Y-54669574D01*
X80783520Y-54703059D01*
X80773349Y-54704832D01*
X80728652Y-54710716D01*
X80679783Y-54717151D01*
X80401155Y-54791809D01*
X80401153Y-54791809D01*
X80401152Y-54791810D01*
X80401139Y-54791814D01*
X80134663Y-54902191D01*
X80134647Y-54902199D01*
X79902000Y-55036519D01*
X79834100Y-55052992D01*
X79778000Y-55036519D01*
X79545352Y-54902199D01*
X79545336Y-54902191D01*
X79278860Y-54791814D01*
X79278847Y-54791810D01*
X79278848Y-54791810D01*
X79278845Y-54791809D01*
X79000217Y-54717151D01*
X79000216Y-54717150D01*
X79000213Y-54717150D01*
X78906650Y-54704832D01*
X78842753Y-54676565D01*
X78835155Y-54669574D01*
X77726668Y-53561086D01*
X77726663Y-53561082D01*
X77726661Y-53561080D01*
X77635636Y-53491235D01*
X77635635Y-53491234D01*
X77544622Y-53421396D01*
X77544616Y-53421392D01*
X77544612Y-53421389D01*
X77470693Y-53378712D01*
X77345891Y-53306657D01*
X77345876Y-53306650D01*
X77141569Y-53222024D01*
X77133887Y-53218842D01*
X76956807Y-53171394D01*
X76956805Y-53171393D01*
X76956803Y-53171392D01*
X76912246Y-53159454D01*
X76912248Y-53159454D01*
X76912239Y-53159452D01*
X76912232Y-53159451D01*
X76902362Y-53158151D01*
X76885771Y-53155967D01*
X76885770Y-53155966D01*
X76684744Y-53129501D01*
X76684739Y-53129500D01*
X76684734Y-53129500D01*
X73734734Y-53129500D01*
X73505266Y-53129500D01*
X73505265Y-53129500D01*
X73277771Y-53159449D01*
X73277764Y-53159450D01*
X73277761Y-53159451D01*
X73233196Y-53171392D01*
X73094779Y-53208480D01*
X73075447Y-53213661D01*
X73056114Y-53218841D01*
X73056101Y-53218846D01*
X72994019Y-53244560D01*
X72994019Y-53244561D01*
X72866065Y-53297561D01*
X72844107Y-53306657D01*
X72748260Y-53361995D01*
X72748254Y-53361998D01*
X72744750Y-53364022D01*
X72645388Y-53421389D01*
X72554363Y-53491235D01*
X72551154Y-53493697D01*
X72551141Y-53493706D01*
X72463340Y-53561078D01*
X72463333Y-53561084D01*
X65681087Y-60343330D01*
X65681080Y-60343338D01*
X65681080Y-60343339D01*
X65648909Y-60385266D01*
X65648908Y-60385265D01*
X65541388Y-60525388D01*
X65459962Y-60666424D01*
X65459962Y-60666425D01*
X65426656Y-60724111D01*
X65426654Y-60724115D01*
X65338845Y-60936103D01*
X65338842Y-60936113D01*
X65311606Y-61037761D01*
X65279452Y-61157762D01*
X65249500Y-61385258D01*
X65249500Y-68296790D01*
X65229815Y-68363829D01*
X65206032Y-68391080D01*
X65079311Y-68499311D01*
X64910588Y-68696859D01*
X64774843Y-68918376D01*
X64675427Y-69158389D01*
X64614778Y-69411009D01*
X64599500Y-69605141D01*
X64599500Y-71234844D01*
X64599501Y-71234859D01*
X64614778Y-71428991D01*
X64675427Y-71681610D01*
X64774842Y-71921620D01*
X64777054Y-71925960D01*
X64775527Y-71926738D01*
X64791830Y-71987029D01*
X64779939Y-72036663D01*
X64780061Y-72036714D01*
X64779744Y-72037477D01*
X64779582Y-72038157D01*
X64778734Y-72039916D01*
X64689683Y-72294409D01*
X64629688Y-72557268D01*
X64629686Y-72557280D01*
X64599500Y-72825186D01*
X64599500Y-73094813D01*
X64629686Y-73362719D01*
X64629688Y-73362731D01*
X64689684Y-73625594D01*
X64689687Y-73625602D01*
X64778734Y-73880082D01*
X64895714Y-74122994D01*
X64895716Y-74122997D01*
X65039162Y-74351289D01*
X65164573Y-74508549D01*
X65207265Y-74562084D01*
X65397915Y-74752734D01*
X65543354Y-74868718D01*
X65583494Y-74925906D01*
X65586344Y-74995718D01*
X65583972Y-75003983D01*
X65536934Y-75148751D01*
X65500000Y-75381947D01*
X65500000Y-75618052D01*
X65536934Y-75851247D01*
X65609897Y-76075802D01*
X65717087Y-76286174D01*
X65777338Y-76369104D01*
X65777340Y-76369105D01*
X66435387Y-75711057D01*
X66440889Y-75731591D01*
X66519881Y-75868408D01*
X66631592Y-75980119D01*
X66768409Y-76059111D01*
X66788940Y-76064612D01*
X66130893Y-76722658D01*
X66213828Y-76782914D01*
X66424197Y-76890102D01*
X66648752Y-76963065D01*
X66648751Y-76963065D01*
X66881948Y-77000000D01*
X67118052Y-77000000D01*
X67351247Y-76963065D01*
X67575802Y-76890102D01*
X67786163Y-76782918D01*
X67786169Y-76782914D01*
X67869104Y-76722658D01*
X67869105Y-76722658D01*
X67211058Y-76064612D01*
X67231591Y-76059111D01*
X67368408Y-75980119D01*
X67480119Y-75868408D01*
X67559111Y-75731591D01*
X67564612Y-75711058D01*
X68222658Y-76369105D01*
X68222658Y-76369104D01*
X68282914Y-76286169D01*
X68282918Y-76286163D01*
X68390102Y-76075802D01*
X68463065Y-75851247D01*
X68500000Y-75618052D01*
X68500000Y-75381947D01*
X68463065Y-75148752D01*
X68416027Y-75003983D01*
X68415412Y-74982466D01*
X68410024Y-74961629D01*
X68414434Y-74948236D01*
X68414032Y-74934142D01*
X68425146Y-74915709D01*
X68431880Y-74895265D01*
X68447702Y-74878304D01*
X68450112Y-74874309D01*
X68455849Y-74869358D01*
X68456204Y-74869069D01*
X68602085Y-74752734D01*
X68612565Y-74742253D01*
X68617572Y-74738193D01*
X68644096Y-74727108D01*
X68669323Y-74713334D01*
X68679739Y-74712214D01*
X68682039Y-74711253D01*
X68684546Y-74711697D01*
X68695681Y-74710500D01*
X72683557Y-74710500D01*
X72750596Y-74730185D01*
X72771238Y-74746819D01*
X75723332Y-77698914D01*
X75723338Y-77698919D01*
X75835017Y-77784613D01*
X75852359Y-77797920D01*
X75852360Y-77797921D01*
X75865685Y-77816170D01*
X75893561Y-77854345D01*
X75893561Y-77854346D01*
X75893563Y-77854349D01*
X75896002Y-77895303D01*
X75897718Y-77924091D01*
X75897716Y-77924092D01*
X75897717Y-77924095D01*
X75885652Y-77945578D01*
X75863507Y-77985012D01*
X75863504Y-77985013D01*
X75863504Y-77985015D01*
X75863500Y-77985016D01*
X75838874Y-78003682D01*
X75764856Y-78046417D01*
X75764835Y-78046431D01*
X75535997Y-78222024D01*
X75535990Y-78222030D01*
X75332030Y-78425990D01*
X75332024Y-78425997D01*
X75156431Y-78654835D01*
X75156420Y-78654851D01*
X75012199Y-78904647D01*
X75012191Y-78904663D01*
X74901814Y-79171139D01*
X74901809Y-79171155D01*
X74837223Y-79412196D01*
X74827152Y-79449780D01*
X74827149Y-79449793D01*
X74789501Y-79735761D01*
X74789500Y-79735778D01*
X74789500Y-80024221D01*
X74789501Y-80024238D01*
X74827149Y-80310206D01*
X74827150Y-80310211D01*
X74827151Y-80310217D01*
X74901809Y-80588844D01*
X74901814Y-80588860D01*
X75012191Y-80855336D01*
X75012199Y-80855352D01*
X75156420Y-81105148D01*
X75156431Y-81105164D01*
X75332024Y-81334002D01*
X75332030Y-81334009D01*
X75535990Y-81537969D01*
X75535996Y-81537974D01*
X75764844Y-81713575D01*
X75764851Y-81713579D01*
X76014647Y-81857800D01*
X76014663Y-81857808D01*
X76281139Y-81968185D01*
X76281145Y-81968186D01*
X76281155Y-81968191D01*
X76559783Y-82042849D01*
X76845772Y-82080500D01*
X76845779Y-82080500D01*
X77134221Y-82080500D01*
X77134228Y-82080500D01*
X77420217Y-82042849D01*
X77698845Y-81968191D01*
X77698857Y-81968185D01*
X77698860Y-81968185D01*
X77965336Y-81857808D01*
X77965339Y-81857806D01*
X77965345Y-81857804D01*
X78198000Y-81723479D01*
X78265900Y-81707007D01*
X78322000Y-81723480D01*
X78554647Y-81857800D01*
X78554663Y-81857808D01*
X78821139Y-81968185D01*
X78821145Y-81968186D01*
X78821155Y-81968191D01*
X79099783Y-82042849D01*
X79385772Y-82080500D01*
X79385779Y-82080500D01*
X79674221Y-82080500D01*
X79674228Y-82080500D01*
X79960217Y-82042849D01*
X80238845Y-81968191D01*
X80238857Y-81968185D01*
X80238860Y-81968185D01*
X80505336Y-81857808D01*
X80505339Y-81857806D01*
X80505345Y-81857804D01*
X80738000Y-81723479D01*
X80805900Y-81707007D01*
X80862000Y-81723480D01*
X81094647Y-81857800D01*
X81094663Y-81857808D01*
X81361139Y-81968185D01*
X81361145Y-81968186D01*
X81361155Y-81968191D01*
X81639783Y-82042849D01*
X81925772Y-82080500D01*
X81925779Y-82080500D01*
X82214221Y-82080500D01*
X82214228Y-82080500D01*
X82500217Y-82042849D01*
X82778845Y-81968191D01*
X82778857Y-81968185D01*
X82778860Y-81968185D01*
X83045336Y-81857808D01*
X83045339Y-81857806D01*
X83045345Y-81857804D01*
X83278000Y-81723479D01*
X83345900Y-81707007D01*
X83402000Y-81723480D01*
X83634647Y-81857800D01*
X83634663Y-81857808D01*
X83901139Y-81968185D01*
X83901145Y-81968186D01*
X83901155Y-81968191D01*
X84179783Y-82042849D01*
X84465772Y-82080500D01*
X84465779Y-82080500D01*
X84754221Y-82080500D01*
X84754228Y-82080500D01*
X85040217Y-82042849D01*
X85318845Y-81968191D01*
X85318857Y-81968185D01*
X85318860Y-81968185D01*
X85585336Y-81857808D01*
X85585339Y-81857806D01*
X85585345Y-81857804D01*
X85818000Y-81723479D01*
X85885900Y-81707007D01*
X85942000Y-81723480D01*
X86174647Y-81857800D01*
X86174663Y-81857808D01*
X86441139Y-81968185D01*
X86441145Y-81968186D01*
X86441155Y-81968191D01*
X86719783Y-82042849D01*
X87005772Y-82080500D01*
X87005779Y-82080500D01*
X87294221Y-82080500D01*
X87294228Y-82080500D01*
X87580217Y-82042849D01*
X87858845Y-81968191D01*
X87858857Y-81968185D01*
X87858860Y-81968185D01*
X88125336Y-81857808D01*
X88125339Y-81857806D01*
X88125345Y-81857804D01*
X88358000Y-81723479D01*
X88425900Y-81707007D01*
X88482000Y-81723480D01*
X88714647Y-81857800D01*
X88714663Y-81857808D01*
X88981139Y-81968185D01*
X88981145Y-81968186D01*
X88981155Y-81968191D01*
X89259783Y-82042849D01*
X89545772Y-82080500D01*
X89545779Y-82080500D01*
X89834221Y-82080500D01*
X89834228Y-82080500D01*
X90120217Y-82042849D01*
X90323408Y-81988404D01*
X90393256Y-81990067D01*
X90451119Y-82029230D01*
X90478623Y-82093458D01*
X90479500Y-82108179D01*
X90479500Y-85271820D01*
X90459815Y-85338859D01*
X90407011Y-85384614D01*
X90337853Y-85394558D01*
X90323407Y-85391595D01*
X90219181Y-85363668D01*
X90120217Y-85337151D01*
X90120211Y-85337150D01*
X90120206Y-85337149D01*
X89834238Y-85299501D01*
X89834233Y-85299500D01*
X89834228Y-85299500D01*
X89545772Y-85299500D01*
X89545766Y-85299500D01*
X89545761Y-85299501D01*
X89259793Y-85337149D01*
X89259786Y-85337150D01*
X89259783Y-85337151D01*
X89045537Y-85394558D01*
X88981155Y-85411809D01*
X88981139Y-85411814D01*
X88714663Y-85522191D01*
X88714647Y-85522199D01*
X88482000Y-85656519D01*
X88414100Y-85672992D01*
X88358000Y-85656519D01*
X88125352Y-85522199D01*
X88125336Y-85522191D01*
X87858860Y-85411814D01*
X87858848Y-85411810D01*
X87858845Y-85411809D01*
X87580217Y-85337151D01*
X87580211Y-85337150D01*
X87580206Y-85337149D01*
X87294238Y-85299501D01*
X87294233Y-85299500D01*
X87294228Y-85299500D01*
X87005772Y-85299500D01*
X87005766Y-85299500D01*
X87005761Y-85299501D01*
X86719793Y-85337149D01*
X86719786Y-85337150D01*
X86719783Y-85337151D01*
X86505537Y-85394558D01*
X86441155Y-85411809D01*
X86441139Y-85411814D01*
X86174663Y-85522191D01*
X86174647Y-85522199D01*
X85942000Y-85656519D01*
X85874100Y-85672992D01*
X85818000Y-85656519D01*
X85585352Y-85522199D01*
X85585336Y-85522191D01*
X85318860Y-85411814D01*
X85318848Y-85411810D01*
X85318845Y-85411809D01*
X85040217Y-85337151D01*
X85040211Y-85337150D01*
X85040206Y-85337149D01*
X84754238Y-85299501D01*
X84754233Y-85299500D01*
X84754228Y-85299500D01*
X84465772Y-85299500D01*
X84465766Y-85299500D01*
X84465761Y-85299501D01*
X84179793Y-85337149D01*
X84179786Y-85337150D01*
X84179783Y-85337151D01*
X83965537Y-85394558D01*
X83901155Y-85411809D01*
X83901139Y-85411814D01*
X83634663Y-85522191D01*
X83634647Y-85522199D01*
X83402000Y-85656519D01*
X83334100Y-85672992D01*
X83278000Y-85656519D01*
X83045352Y-85522199D01*
X83045336Y-85522191D01*
X82778860Y-85411814D01*
X82778848Y-85411810D01*
X82778845Y-85411809D01*
X82500217Y-85337151D01*
X82500211Y-85337150D01*
X82500206Y-85337149D01*
X82214238Y-85299501D01*
X82214233Y-85299500D01*
X82214228Y-85299500D01*
X81925772Y-85299500D01*
X81925766Y-85299500D01*
X81925761Y-85299501D01*
X81639793Y-85337149D01*
X81639786Y-85337150D01*
X81639783Y-85337151D01*
X81425537Y-85394558D01*
X81361155Y-85411809D01*
X81361139Y-85411814D01*
X81094663Y-85522191D01*
X81094647Y-85522199D01*
X80862000Y-85656519D01*
X80794100Y-85672992D01*
X80738000Y-85656519D01*
X80505352Y-85522199D01*
X80505336Y-85522191D01*
X80238860Y-85411814D01*
X80238848Y-85411810D01*
X80238845Y-85411809D01*
X79960217Y-85337151D01*
X79960211Y-85337150D01*
X79960206Y-85337149D01*
X79674238Y-85299501D01*
X79674233Y-85299500D01*
X79674228Y-85299500D01*
X79385772Y-85299500D01*
X79385766Y-85299500D01*
X79385761Y-85299501D01*
X79099793Y-85337149D01*
X79099786Y-85337150D01*
X79099783Y-85337151D01*
X78885537Y-85394558D01*
X78821155Y-85411809D01*
X78821139Y-85411814D01*
X78554666Y-85522190D01*
X78554653Y-85522196D01*
X78522894Y-85540532D01*
X78454993Y-85557002D01*
X78396108Y-85538871D01*
X78291628Y-85474846D01*
X78291627Y-85474845D01*
X78291623Y-85474843D01*
X78091594Y-85391989D01*
X78051610Y-85375427D01*
X78051611Y-85375427D01*
X77816238Y-85318919D01*
X77798994Y-85314779D01*
X77798992Y-85314778D01*
X77798991Y-85314778D01*
X77637458Y-85302066D01*
X77604853Y-85299500D01*
X77604851Y-85299500D01*
X76375155Y-85299500D01*
X76375140Y-85299501D01*
X76181008Y-85314778D01*
X75928389Y-85375427D01*
X75688376Y-85474843D01*
X75466859Y-85610588D01*
X75269311Y-85779311D01*
X75100588Y-85976859D01*
X74964843Y-86198376D01*
X74865427Y-86438389D01*
X74804778Y-86691009D01*
X74789500Y-86885141D01*
X74789500Y-88114844D01*
X74789501Y-88114859D01*
X74804778Y-88308991D01*
X74865427Y-88561610D01*
X74964843Y-88801623D01*
X74964845Y-88801627D01*
X74964846Y-88801628D01*
X75100588Y-89023140D01*
X75269311Y-89220689D01*
X75466860Y-89389412D01*
X75688372Y-89525154D01*
X75688374Y-89525154D01*
X75688376Y-89525156D01*
X75749693Y-89550554D01*
X75928390Y-89624573D01*
X76181006Y-89685221D01*
X76375147Y-89700500D01*
X77604852Y-89700499D01*
X77798994Y-89685221D01*
X78051610Y-89624573D01*
X78291628Y-89525154D01*
X78396107Y-89461128D01*
X78463550Y-89442883D01*
X78522897Y-89459469D01*
X78554643Y-89477798D01*
X78554663Y-89477808D01*
X78821139Y-89588185D01*
X78821145Y-89588186D01*
X78821155Y-89588191D01*
X79099783Y-89662849D01*
X79193348Y-89675166D01*
X79257243Y-89703432D01*
X79264843Y-89710424D01*
X84711081Y-95156661D01*
X84873339Y-95318919D01*
X84923962Y-95357764D01*
X85055382Y-95458607D01*
X85055385Y-95458608D01*
X85055388Y-95458611D01*
X85254112Y-95573344D01*
X85254117Y-95573346D01*
X85254123Y-95573349D01*
X85332429Y-95605784D01*
X85466113Y-95661158D01*
X85687761Y-95720548D01*
X85714223Y-95724031D01*
X85714227Y-95724033D01*
X85714228Y-95724032D01*
X85915266Y-95750500D01*
X85915273Y-95750500D01*
X97994727Y-95750500D01*
X97994734Y-95750500D01*
X98195771Y-95724032D01*
X98195772Y-95724032D01*
X98222229Y-95720550D01*
X98222234Y-95720548D01*
X98222239Y-95720548D01*
X98443887Y-95661158D01*
X98655888Y-95573344D01*
X98854612Y-95458611D01*
X98945636Y-95388765D01*
X99036661Y-95318920D01*
X105577657Y-88777922D01*
X105633240Y-88745831D01*
X105866632Y-88683295D01*
X106121021Y-88577923D01*
X106359479Y-88440249D01*
X106577928Y-88272628D01*
X106772628Y-88077928D01*
X106940249Y-87859479D01*
X107033547Y-87697882D01*
X108535669Y-87697882D01*
X108535670Y-87697883D01*
X108561059Y-87716329D01*
X108729362Y-87802085D01*
X108908997Y-87860451D01*
X109095553Y-87890000D01*
X109284447Y-87890000D01*
X109471002Y-87860451D01*
X109650637Y-87802085D01*
X109818937Y-87716331D01*
X109844328Y-87697883D01*
X109844328Y-87697882D01*
X109190001Y-87043554D01*
X109190000Y-87043554D01*
X108535669Y-87697882D01*
X107033547Y-87697882D01*
X107077923Y-87621021D01*
X107183295Y-87366632D01*
X107254560Y-87100666D01*
X107290500Y-86827674D01*
X107290500Y-86595552D01*
X107990000Y-86595552D01*
X107990000Y-86784447D01*
X108019548Y-86971002D01*
X108077914Y-87150637D01*
X108163666Y-87318933D01*
X108182116Y-87344328D01*
X108836446Y-86690000D01*
X108836446Y-86689999D01*
X108790369Y-86643922D01*
X108840000Y-86643922D01*
X108840000Y-86736078D01*
X108863852Y-86825095D01*
X108909930Y-86904905D01*
X108975095Y-86970070D01*
X109054905Y-87016148D01*
X109143922Y-87040000D01*
X109236078Y-87040000D01*
X109325095Y-87016148D01*
X109404905Y-86970070D01*
X109470070Y-86904905D01*
X109516148Y-86825095D01*
X109540000Y-86736078D01*
X109540000Y-86643922D01*
X109516148Y-86554905D01*
X109470070Y-86475095D01*
X109404905Y-86409930D01*
X109325095Y-86363852D01*
X109236078Y-86340000D01*
X109143922Y-86340000D01*
X109054905Y-86363852D01*
X108975095Y-86409930D01*
X108909930Y-86475095D01*
X108863852Y-86554905D01*
X108840000Y-86643922D01*
X108790369Y-86643922D01*
X108182116Y-86035669D01*
X108182116Y-86035670D01*
X108163669Y-86061060D01*
X108077914Y-86229362D01*
X108019548Y-86408997D01*
X107990000Y-86595552D01*
X107290500Y-86595552D01*
X107290500Y-86552326D01*
X107254560Y-86279334D01*
X107183295Y-86013368D01*
X107086345Y-85779311D01*
X107085317Y-85776828D01*
X107085316Y-85776827D01*
X107077926Y-85758985D01*
X107077919Y-85758971D01*
X107033546Y-85682116D01*
X108535669Y-85682116D01*
X109190000Y-86336446D01*
X109190001Y-86336446D01*
X109844328Y-85682116D01*
X109818933Y-85663666D01*
X109650637Y-85577914D01*
X109471002Y-85519548D01*
X109284447Y-85490000D01*
X109095553Y-85490000D01*
X108908997Y-85519548D01*
X108729362Y-85577914D01*
X108561060Y-85663669D01*
X108535670Y-85682116D01*
X108535669Y-85682116D01*
X107033546Y-85682116D01*
X107021445Y-85661156D01*
X106940249Y-85520521D01*
X106825581Y-85371082D01*
X106772629Y-85302073D01*
X106772623Y-85302066D01*
X106577933Y-85107376D01*
X106577926Y-85107370D01*
X106359483Y-84939754D01*
X106359482Y-84939753D01*
X106359479Y-84939751D01*
X106264407Y-84884861D01*
X106121028Y-84802080D01*
X106121017Y-84802075D01*
X105866630Y-84696704D01*
X105733649Y-84661072D01*
X105600666Y-84625440D01*
X105600660Y-84625439D01*
X105600655Y-84625438D01*
X105327684Y-84589501D01*
X105327679Y-84589500D01*
X105327674Y-84589500D01*
X105052326Y-84589500D01*
X105052320Y-84589500D01*
X105052315Y-84589501D01*
X104779344Y-84625438D01*
X104779337Y-84625439D01*
X104779334Y-84625440D01*
X104748959Y-84633579D01*
X104513369Y-84696704D01*
X104258982Y-84802075D01*
X104258971Y-84802080D01*
X104036106Y-84930752D01*
X104027765Y-84935569D01*
X104020516Y-84939754D01*
X103802073Y-85107370D01*
X103802066Y-85107376D01*
X103607376Y-85302066D01*
X103607370Y-85302073D01*
X103439754Y-85520516D01*
X103439751Y-85520520D01*
X103439751Y-85520521D01*
X103438787Y-85522191D01*
X103302073Y-85758984D01*
X103301212Y-85760731D01*
X103300816Y-85761160D01*
X103300047Y-85762494D01*
X103299748Y-85762321D01*
X103253907Y-85812151D01*
X103186312Y-85829833D01*
X103119888Y-85808163D01*
X103080194Y-85762354D01*
X103079953Y-85762494D01*
X103079228Y-85761239D01*
X103078788Y-85760731D01*
X103077926Y-85758984D01*
X103028278Y-85672992D01*
X102940249Y-85520521D01*
X102825581Y-85371082D01*
X102772629Y-85302073D01*
X102772623Y-85302066D01*
X102577933Y-85107376D01*
X102577926Y-85107370D01*
X102359483Y-84939754D01*
X102359482Y-84939753D01*
X102359479Y-84939751D01*
X102264407Y-84884861D01*
X102121028Y-84802080D01*
X102121017Y-84802075D01*
X101866630Y-84696704D01*
X101733649Y-84661072D01*
X101600666Y-84625440D01*
X101600660Y-84625439D01*
X101600655Y-84625438D01*
X101327684Y-84589501D01*
X101327679Y-84589500D01*
X101327674Y-84589500D01*
X101052326Y-84589500D01*
X101052320Y-84589500D01*
X101052315Y-84589501D01*
X100779344Y-84625438D01*
X100779337Y-84625439D01*
X100779334Y-84625440D01*
X100748959Y-84633579D01*
X100513369Y-84696704D01*
X100258982Y-84802075D01*
X100258971Y-84802080D01*
X100036106Y-84930752D01*
X100027765Y-84935569D01*
X100020516Y-84939754D01*
X99802073Y-85107370D01*
X99802066Y-85107376D01*
X99607376Y-85302066D01*
X99607370Y-85302073D01*
X99538376Y-85391989D01*
X99481948Y-85433192D01*
X99412202Y-85437347D01*
X99351282Y-85403135D01*
X99341624Y-85391989D01*
X99272629Y-85302073D01*
X99272623Y-85302066D01*
X99077933Y-85107376D01*
X99077926Y-85107370D01*
X98859483Y-84939754D01*
X98859482Y-84939753D01*
X98859479Y-84939751D01*
X98764407Y-84884861D01*
X98621028Y-84802080D01*
X98621017Y-84802075D01*
X98366630Y-84696704D01*
X98233649Y-84661072D01*
X98100666Y-84625440D01*
X98100660Y-84625439D01*
X98100655Y-84625438D01*
X97827684Y-84589501D01*
X97827679Y-84589500D01*
X97827674Y-84589500D01*
X97552326Y-84589500D01*
X97552320Y-84589500D01*
X97552315Y-84589501D01*
X97279344Y-84625438D01*
X97279337Y-84625439D01*
X97279334Y-84625440D01*
X97248959Y-84633579D01*
X97102800Y-84672742D01*
X97096593Y-84674405D01*
X97026743Y-84672742D01*
X96968881Y-84633579D01*
X96941377Y-84569351D01*
X96940500Y-84554630D01*
X96940500Y-81751442D01*
X96960185Y-81684403D01*
X96976815Y-81663765D01*
X97436410Y-81204169D01*
X97497731Y-81170686D01*
X97540279Y-81168914D01*
X97546458Y-81169727D01*
X97552326Y-81170500D01*
X97552332Y-81170500D01*
X97827667Y-81170500D01*
X97827674Y-81170500D01*
X98100666Y-81134560D01*
X98366632Y-81063295D01*
X98621021Y-80957923D01*
X98733490Y-80892989D01*
X98830270Y-80837113D01*
X98892270Y-80820500D01*
X99987730Y-80820500D01*
X100049730Y-80837113D01*
X100258971Y-80957919D01*
X100258976Y-80957921D01*
X100258979Y-80957923D01*
X100513368Y-81063295D01*
X100779334Y-81134560D01*
X101052326Y-81170500D01*
X101052333Y-81170500D01*
X101327667Y-81170500D01*
X101327674Y-81170500D01*
X101600666Y-81134560D01*
X101866632Y-81063295D01*
X102121021Y-80957923D01*
X102359479Y-80820249D01*
X102577928Y-80652628D01*
X102772628Y-80457928D01*
X102940249Y-80239479D01*
X103077923Y-80001021D01*
X103077925Y-80001014D01*
X103078784Y-79999276D01*
X103079179Y-79998846D01*
X103079953Y-79997506D01*
X103080252Y-79997679D01*
X103126085Y-79947853D01*
X103193679Y-79930166D01*
X103260105Y-79951830D01*
X103299803Y-79997646D01*
X103300047Y-79997506D01*
X103300775Y-79998767D01*
X103301216Y-79999276D01*
X103302076Y-80001020D01*
X103315481Y-80024238D01*
X103439751Y-80239479D01*
X103439753Y-80239482D01*
X103439754Y-80239483D01*
X103607370Y-80457926D01*
X103607376Y-80457933D01*
X103802066Y-80652623D01*
X103802072Y-80652628D01*
X104020521Y-80820249D01*
X104165485Y-80903944D01*
X104258971Y-80957919D01*
X104258976Y-80957921D01*
X104258979Y-80957923D01*
X104513368Y-81063295D01*
X104779334Y-81134560D01*
X105052326Y-81170500D01*
X105052333Y-81170500D01*
X105327667Y-81170500D01*
X105327674Y-81170500D01*
X105600666Y-81134560D01*
X105866632Y-81063295D01*
X106121021Y-80957923D01*
X106359479Y-80820249D01*
X106577928Y-80652628D01*
X106772628Y-80457928D01*
X106940249Y-80239479D01*
X107077923Y-80001021D01*
X107077925Y-80001014D01*
X107078784Y-79999276D01*
X107079179Y-79998846D01*
X107079953Y-79997506D01*
X107080252Y-79997679D01*
X107126085Y-79947853D01*
X107193679Y-79930166D01*
X107260105Y-79951830D01*
X107299803Y-79997646D01*
X107300047Y-79997506D01*
X107300775Y-79998767D01*
X107301216Y-79999276D01*
X107302076Y-80001020D01*
X107315481Y-80024238D01*
X107439751Y-80239479D01*
X107439753Y-80239482D01*
X107439754Y-80239483D01*
X107607370Y-80457926D01*
X107607376Y-80457933D01*
X107802066Y-80652623D01*
X107802072Y-80652628D01*
X108020521Y-80820249D01*
X108165485Y-80903944D01*
X108258971Y-80957919D01*
X108258976Y-80957921D01*
X108258979Y-80957923D01*
X108513368Y-81063295D01*
X108779334Y-81134560D01*
X109052326Y-81170500D01*
X109052333Y-81170500D01*
X109327667Y-81170500D01*
X109327674Y-81170500D01*
X109600666Y-81134560D01*
X109866632Y-81063295D01*
X110121021Y-80957923D01*
X110233490Y-80892989D01*
X110330270Y-80837113D01*
X110392270Y-80820500D01*
X111048305Y-80820500D01*
X111054129Y-80822210D01*
X111060092Y-80821061D01*
X111087270Y-80831941D01*
X111115344Y-80840185D01*
X111119318Y-80844771D01*
X111124957Y-80847029D01*
X111141938Y-80870876D01*
X111161099Y-80892989D01*
X111161963Y-80898997D01*
X111165485Y-80903944D01*
X111166877Y-80933179D01*
X111171043Y-80962147D01*
X111168594Y-80969220D01*
X111168810Y-80973734D01*
X111155692Y-81006500D01*
X111144787Y-81025388D01*
X111144786Y-81025389D01*
X111116661Y-81074100D01*
X111116654Y-81074115D01*
X111028845Y-81286103D01*
X111028842Y-81286113D01*
X110971993Y-81498279D01*
X110971992Y-81498284D01*
X110969452Y-81507761D01*
X110939500Y-81735258D01*
X110939500Y-85487729D01*
X110922887Y-85549729D01*
X110802080Y-85758971D01*
X110802075Y-85758982D01*
X110696704Y-86013369D01*
X110625441Y-86279331D01*
X110625439Y-86279342D01*
X110607463Y-86415882D01*
X110579196Y-86479778D01*
X110520872Y-86518249D01*
X110451007Y-86519080D01*
X110391784Y-86482008D01*
X110362051Y-86419094D01*
X110360451Y-86408997D01*
X110302085Y-86229362D01*
X110216329Y-86061059D01*
X110197883Y-86035670D01*
X110197882Y-86035669D01*
X109543554Y-86689999D01*
X109543554Y-86690000D01*
X110197882Y-87344328D01*
X110197883Y-87344328D01*
X110216331Y-87318937D01*
X110302085Y-87150637D01*
X110360450Y-86971006D01*
X110362050Y-86960907D01*
X110391979Y-86897772D01*
X110451290Y-86860840D01*
X110521153Y-86861836D01*
X110579386Y-86900446D01*
X110607463Y-86964118D01*
X110625438Y-87100655D01*
X110625439Y-87100660D01*
X110625440Y-87100666D01*
X110647009Y-87181162D01*
X110696704Y-87366630D01*
X110802075Y-87621017D01*
X110802080Y-87621028D01*
X110884861Y-87764407D01*
X110939751Y-87859479D01*
X110939753Y-87859482D01*
X110939754Y-87859483D01*
X111107370Y-88077926D01*
X111107376Y-88077933D01*
X111302066Y-88272623D01*
X111302073Y-88272629D01*
X111306324Y-88275891D01*
X111520521Y-88440249D01*
X111672697Y-88528108D01*
X111758971Y-88577919D01*
X111758976Y-88577921D01*
X111758979Y-88577923D01*
X112013368Y-88683295D01*
X112279334Y-88754560D01*
X112552326Y-88790500D01*
X112552333Y-88790500D01*
X112827667Y-88790500D01*
X112827674Y-88790500D01*
X113100666Y-88754560D01*
X113100683Y-88754555D01*
X113104647Y-88753768D01*
X113104715Y-88754110D01*
X113132142Y-88750500D01*
X114487730Y-88750500D01*
X114549730Y-88767113D01*
X114758971Y-88887919D01*
X114758976Y-88887921D01*
X114758979Y-88887923D01*
X115013368Y-88993295D01*
X115279334Y-89064560D01*
X115552326Y-89100500D01*
X115552333Y-89100500D01*
X115827667Y-89100500D01*
X115827674Y-89100500D01*
X116100666Y-89064560D01*
X116366632Y-88993295D01*
X116621021Y-88887923D01*
X116859479Y-88750249D01*
X117077928Y-88582628D01*
X117272628Y-88387928D01*
X117440249Y-88169479D01*
X117577923Y-87931021D01*
X117577931Y-87931001D01*
X117578186Y-87930486D01*
X117578310Y-87930350D01*
X117579953Y-87927506D01*
X117580588Y-87927873D01*
X117595842Y-87911285D01*
X117610461Y-87889686D01*
X117619110Y-87885982D01*
X117625480Y-87879055D01*
X117650713Y-87872448D01*
X117674689Y-87862181D01*
X117683968Y-87863741D01*
X117693071Y-87861358D01*
X117717868Y-87869441D01*
X117743591Y-87873767D01*
X117750554Y-87880096D01*
X117759500Y-87883013D01*
X117775990Y-87903219D01*
X117795292Y-87920765D01*
X117800792Y-87933609D01*
X117803677Y-87937144D01*
X117809186Y-87953210D01*
X117828526Y-88025386D01*
X117838842Y-88063887D01*
X117926650Y-88275876D01*
X117926657Y-88275891D01*
X118041388Y-88474611D01*
X118082437Y-88528108D01*
X118082442Y-88528113D01*
X118181078Y-88656659D01*
X118181084Y-88656666D01*
X119681081Y-90156661D01*
X119843339Y-90318919D01*
X119893962Y-90357764D01*
X120025382Y-90458607D01*
X120025385Y-90458608D01*
X120025388Y-90458611D01*
X120224112Y-90573344D01*
X120224117Y-90573346D01*
X120224123Y-90573349D01*
X120302429Y-90605784D01*
X120436113Y-90661158D01*
X120657761Y-90720548D01*
X120684223Y-90724031D01*
X120684227Y-90724033D01*
X120684228Y-90724032D01*
X120885266Y-90750500D01*
X120885273Y-90750500D01*
X123614727Y-90750500D01*
X123614734Y-90750500D01*
X123815771Y-90724032D01*
X123815772Y-90724032D01*
X123842229Y-90720550D01*
X123842234Y-90720548D01*
X123842239Y-90720548D01*
X124063887Y-90661158D01*
X124275888Y-90573344D01*
X124474612Y-90458611D01*
X124572701Y-90383344D01*
X124656661Y-90318920D01*
X129188762Y-85786819D01*
X129250085Y-85753334D01*
X129276443Y-85750500D01*
X145114727Y-85750500D01*
X145114734Y-85750500D01*
X145315771Y-85724032D01*
X145315772Y-85724032D01*
X145342229Y-85720550D01*
X145342234Y-85720548D01*
X145342239Y-85720548D01*
X145563887Y-85661158D01*
X145775888Y-85573344D01*
X145974612Y-85458611D01*
X146088684Y-85371080D01*
X146156661Y-85318920D01*
X148318920Y-83156661D01*
X148402318Y-83047974D01*
X148458611Y-82974612D01*
X148573344Y-82775888D01*
X148661158Y-82563887D01*
X148720548Y-82342238D01*
X148750500Y-82114734D01*
X148750500Y-78885266D01*
X148732844Y-78751158D01*
X148720549Y-78657761D01*
X148661158Y-78436114D01*
X148654393Y-78419783D01*
X148591327Y-78267526D01*
X148573349Y-78224123D01*
X148573346Y-78224117D01*
X148573344Y-78224112D01*
X148458611Y-78025388D01*
X148371788Y-77912239D01*
X148371788Y-77912238D01*
X148371787Y-77912238D01*
X148318920Y-77843339D01*
X148318917Y-77843336D01*
X148318913Y-77843331D01*
X147063262Y-76587680D01*
X147029777Y-76526357D01*
X147034761Y-76456665D01*
X147063260Y-76412320D01*
X152787819Y-70687762D01*
X152849142Y-70654277D01*
X152918834Y-70659261D01*
X152974767Y-70701133D01*
X152999184Y-70766597D01*
X152999500Y-70775443D01*
X152999500Y-87495572D01*
X152999184Y-87504419D01*
X152984869Y-87704557D01*
X152982351Y-87722068D01*
X152940645Y-87913790D01*
X152935661Y-87930765D01*
X152867093Y-88114605D01*
X152859743Y-88130699D01*
X152765709Y-88302908D01*
X152756144Y-88317791D01*
X152638561Y-88474864D01*
X152626975Y-88488235D01*
X152488235Y-88626975D01*
X152474864Y-88638561D01*
X152317791Y-88756144D01*
X152302908Y-88765709D01*
X152130699Y-88859743D01*
X152114605Y-88867093D01*
X151930765Y-88935661D01*
X151913790Y-88940645D01*
X151722068Y-88982351D01*
X151704557Y-88984869D01*
X151523779Y-88997799D01*
X151504417Y-88999184D01*
X151495572Y-88999500D01*
X131434108Y-88999500D01*
X131306812Y-89033608D01*
X131192686Y-89099500D01*
X131192683Y-89099502D01*
X123829005Y-96463181D01*
X123767682Y-96496666D01*
X123741324Y-96499500D01*
X63004067Y-96499500D01*
X62995957Y-96499235D01*
X62747116Y-96482925D01*
X62731035Y-96480807D01*
X62490464Y-96432954D01*
X62474797Y-96428756D01*
X62242520Y-96349909D01*
X62227534Y-96343702D01*
X62007539Y-96235212D01*
X61993493Y-96227102D01*
X61789539Y-96090825D01*
X61776670Y-96080951D01*
X61592250Y-95919218D01*
X61580781Y-95907749D01*
X61442877Y-95750500D01*
X61419045Y-95723325D01*
X61409174Y-95710460D01*
X61376231Y-95661158D01*
X61272897Y-95506507D01*
X61264787Y-95492460D01*
X61213651Y-95388766D01*
X61156294Y-95272457D01*
X61150090Y-95257478D01*
X61071243Y-95025201D01*
X61067045Y-95009534D01*
X61059186Y-94970025D01*
X61019190Y-94768952D01*
X61017075Y-94752894D01*
X61000765Y-94504042D01*
X61000500Y-94495932D01*
X61000500Y-88878711D01*
X65149500Y-88878711D01*
X65149500Y-89121288D01*
X65181161Y-89361785D01*
X65243947Y-89596104D01*
X65288404Y-89703432D01*
X65336776Y-89820212D01*
X65458064Y-90030289D01*
X65458066Y-90030292D01*
X65458067Y-90030293D01*
X65605733Y-90222736D01*
X65605739Y-90222743D01*
X65777256Y-90394260D01*
X65777263Y-90394266D01*
X65861123Y-90458614D01*
X65969711Y-90541936D01*
X66179788Y-90663224D01*
X66403900Y-90756054D01*
X66638211Y-90818838D01*
X66818586Y-90842584D01*
X66878711Y-90850500D01*
X66878712Y-90850500D01*
X67121289Y-90850500D01*
X67169388Y-90844167D01*
X67361789Y-90818838D01*
X67596100Y-90756054D01*
X67820212Y-90663224D01*
X68030289Y-90541936D01*
X68222738Y-90394265D01*
X68394265Y-90222738D01*
X68541936Y-90030289D01*
X68663224Y-89820212D01*
X68756054Y-89596100D01*
X68818838Y-89361789D01*
X68850500Y-89121288D01*
X68850500Y-88878712D01*
X68818838Y-88638211D01*
X68756054Y-88403900D01*
X68663224Y-88179788D01*
X68541936Y-87969711D01*
X68394265Y-87777262D01*
X68394260Y-87777256D01*
X68222743Y-87605739D01*
X68222736Y-87605733D01*
X68030293Y-87458067D01*
X68030292Y-87458066D01*
X68030289Y-87458064D01*
X67858661Y-87358974D01*
X67820214Y-87336777D01*
X67820205Y-87336773D01*
X67596104Y-87243947D01*
X67361785Y-87181161D01*
X67121289Y-87149500D01*
X67121288Y-87149500D01*
X66878712Y-87149500D01*
X66878711Y-87149500D01*
X66638214Y-87181161D01*
X66403895Y-87243947D01*
X66179794Y-87336773D01*
X66179785Y-87336777D01*
X65969706Y-87458067D01*
X65777263Y-87605733D01*
X65777256Y-87605739D01*
X65605739Y-87777256D01*
X65605733Y-87777263D01*
X65458067Y-87969706D01*
X65336777Y-88179785D01*
X65336773Y-88179794D01*
X65243947Y-88403895D01*
X65181161Y-88638214D01*
X65149500Y-88878711D01*
X61000500Y-88878711D01*
X61000500Y-53378711D01*
X63149500Y-53378711D01*
X63149500Y-53621288D01*
X63181161Y-53861785D01*
X63243947Y-54096104D01*
X63336773Y-54320205D01*
X63336776Y-54320212D01*
X63458064Y-54530289D01*
X63458066Y-54530292D01*
X63458067Y-54530293D01*
X63605733Y-54722736D01*
X63605739Y-54722743D01*
X63777256Y-54894260D01*
X63777263Y-54894266D01*
X63807381Y-54917376D01*
X63969711Y-55041936D01*
X64179788Y-55163224D01*
X64403900Y-55256054D01*
X64638211Y-55318838D01*
X64818586Y-55342584D01*
X64878711Y-55350500D01*
X64878712Y-55350500D01*
X65121289Y-55350500D01*
X65169388Y-55344167D01*
X65361789Y-55318838D01*
X65596100Y-55256054D01*
X65820212Y-55163224D01*
X66030289Y-55041936D01*
X66222738Y-54894265D01*
X66394265Y-54722738D01*
X66541936Y-54530289D01*
X66663224Y-54320212D01*
X66756054Y-54096100D01*
X66818838Y-53861789D01*
X66850500Y-53621288D01*
X66850500Y-53378712D01*
X66818838Y-53138211D01*
X66756054Y-52903900D01*
X66663224Y-52679788D01*
X66541936Y-52469711D01*
X66394265Y-52277262D01*
X66394260Y-52277256D01*
X66222743Y-52105739D01*
X66222736Y-52105733D01*
X66030293Y-51958067D01*
X66030292Y-51958066D01*
X66030289Y-51958064D01*
X65858661Y-51858974D01*
X65820214Y-51836777D01*
X65820205Y-51836773D01*
X65596104Y-51743947D01*
X65361785Y-51681161D01*
X65121289Y-51649500D01*
X65121288Y-51649500D01*
X64878712Y-51649500D01*
X64878711Y-51649500D01*
X64638214Y-51681161D01*
X64403895Y-51743947D01*
X64179794Y-51836773D01*
X64179785Y-51836777D01*
X63969706Y-51958067D01*
X63777263Y-52105733D01*
X63777256Y-52105739D01*
X63605739Y-52277256D01*
X63605733Y-52277263D01*
X63458067Y-52469706D01*
X63336777Y-52679785D01*
X63336773Y-52679794D01*
X63243947Y-52903895D01*
X63181161Y-53138214D01*
X63149500Y-53378711D01*
X61000500Y-53378711D01*
X61000500Y-51004066D01*
X61000765Y-50995956D01*
X61004819Y-50934108D01*
X61017075Y-50747102D01*
X61019190Y-50731048D01*
X61067045Y-50490462D01*
X61071243Y-50474797D01*
X61094337Y-50406762D01*
X61150093Y-50242512D01*
X61156291Y-50227547D01*
X61264790Y-50007533D01*
X61272897Y-49993493D01*
X61409174Y-49789539D01*
X61419039Y-49776681D01*
X61580786Y-49592244D01*
X61592244Y-49580786D01*
X61776681Y-49419039D01*
X61789534Y-49409177D01*
X61993493Y-49272897D01*
X62007533Y-49264790D01*
X62227547Y-49156291D01*
X62242512Y-49150093D01*
X62406762Y-49094337D01*
X62474797Y-49071243D01*
X62490464Y-49067045D01*
X62731048Y-49019190D01*
X62747102Y-49017075D01*
X62995957Y-49000765D01*
X63004067Y-49000500D01*
X63065892Y-49000500D01*
X63434108Y-49000500D01*
X150934108Y-49000500D01*
X150995933Y-49000500D01*
X151004043Y-49000765D01*
G37*
%TD.AperFunction*%
%TA.AperFunction,Conductor*%
G36*
X118095703Y-68491730D02*
G01*
X118102181Y-68497762D01*
X119613333Y-70008915D01*
X119613338Y-70008919D01*
X119613339Y-70008920D01*
X119684972Y-70063885D01*
X119684973Y-70063887D01*
X119795388Y-70148611D01*
X119994108Y-70263342D01*
X119994123Y-70263349D01*
X120085480Y-70301190D01*
X120206113Y-70351158D01*
X120244781Y-70361519D01*
X120427761Y-70410549D01*
X120548539Y-70426448D01*
X120655266Y-70440500D01*
X121934486Y-70440500D01*
X121956167Y-70446866D01*
X121978697Y-70448649D01*
X121996926Y-70458834D01*
X122001525Y-70460185D01*
X122009545Y-70465798D01*
X122009786Y-70465981D01*
X122084844Y-70523575D01*
X122087659Y-70525200D01*
X122093446Y-70529601D01*
X122112010Y-70554795D01*
X122132080Y-70578807D01*
X122132568Y-70582694D01*
X122134893Y-70585849D01*
X122136889Y-70617081D01*
X122140791Y-70648131D01*
X122139187Y-70653036D01*
X122139350Y-70655576D01*
X122136941Y-70659909D01*
X122128872Y-70684597D01*
X122105246Y-70730965D01*
X122105243Y-70730972D01*
X122042009Y-70925582D01*
X122010000Y-71127682D01*
X122010000Y-71332317D01*
X122042009Y-71534417D01*
X122105244Y-71729031D01*
X122198141Y-71911350D01*
X122198147Y-71911359D01*
X122230523Y-71955921D01*
X122230524Y-71955922D01*
X122910000Y-71276446D01*
X122910000Y-71282661D01*
X122937259Y-71384394D01*
X122989920Y-71475606D01*
X123064394Y-71550080D01*
X123155606Y-71602741D01*
X123257339Y-71630000D01*
X123263553Y-71630000D01*
X122584076Y-72309474D01*
X122628650Y-72341859D01*
X122722180Y-72389515D01*
X122772976Y-72437489D01*
X122789771Y-72505310D01*
X122767234Y-72571445D01*
X122722180Y-72610485D01*
X122628644Y-72658143D01*
X122584077Y-72690523D01*
X122584077Y-72690524D01*
X123263554Y-73370000D01*
X123257339Y-73370000D01*
X123155606Y-73397259D01*
X123064394Y-73449920D01*
X122989920Y-73524394D01*
X122937259Y-73615606D01*
X122910000Y-73717339D01*
X122910000Y-73723553D01*
X122230524Y-73044077D01*
X122230523Y-73044077D01*
X122198143Y-73088644D01*
X122105244Y-73270968D01*
X122042009Y-73465582D01*
X122010000Y-73667682D01*
X122010000Y-73872317D01*
X122042009Y-74074417D01*
X122105245Y-74269034D01*
X122128871Y-74315402D01*
X122141767Y-74384072D01*
X122115490Y-74448812D01*
X122087292Y-74474788D01*
X122084849Y-74476420D01*
X121855997Y-74652024D01*
X121855990Y-74652030D01*
X121652030Y-74855990D01*
X121652024Y-74855997D01*
X121476431Y-75084835D01*
X121476421Y-75084850D01*
X121452963Y-75125480D01*
X121433258Y-75151159D01*
X119681087Y-76903330D01*
X119628212Y-76972239D01*
X119541383Y-77085395D01*
X119472485Y-77204733D01*
X119472485Y-77204734D01*
X119449570Y-77244423D01*
X119426656Y-77284111D01*
X119426654Y-77284115D01*
X119338845Y-77496103D01*
X119338842Y-77496113D01*
X119279630Y-77717099D01*
X119279614Y-77717160D01*
X119279450Y-77717769D01*
X119249501Y-77945255D01*
X119249500Y-77945272D01*
X119249500Y-79634557D01*
X119229815Y-79701596D01*
X119177011Y-79747351D01*
X119107853Y-79757295D01*
X119044297Y-79728270D01*
X119037819Y-79722238D01*
X117900424Y-78584843D01*
X117866939Y-78523520D01*
X117865168Y-78513361D01*
X117852849Y-78419783D01*
X117778191Y-78141155D01*
X117778186Y-78141145D01*
X117778185Y-78141139D01*
X117667808Y-77874663D01*
X117667800Y-77874647D01*
X117533480Y-77642000D01*
X117517007Y-77574100D01*
X117533480Y-77518000D01*
X117667800Y-77285352D01*
X117667808Y-77285336D01*
X117778185Y-77018860D01*
X117778185Y-77018857D01*
X117778191Y-77018845D01*
X117852849Y-76740217D01*
X117890500Y-76454228D01*
X117890500Y-76165772D01*
X117852849Y-75879783D01*
X117778191Y-75601155D01*
X117778186Y-75601145D01*
X117778185Y-75601139D01*
X117667808Y-75334663D01*
X117667800Y-75334647D01*
X117533480Y-75102000D01*
X117517007Y-75034100D01*
X117533480Y-74978000D01*
X117667800Y-74745352D01*
X117667808Y-74745336D01*
X117778185Y-74478860D01*
X117778185Y-74478857D01*
X117778191Y-74478845D01*
X117852849Y-74200217D01*
X117890500Y-73914228D01*
X117890500Y-73625772D01*
X117852849Y-73339783D01*
X117778191Y-73061155D01*
X117778186Y-73061145D01*
X117778185Y-73061139D01*
X117667808Y-72794663D01*
X117667800Y-72794647D01*
X117533480Y-72562000D01*
X117517007Y-72494100D01*
X117533480Y-72438000D01*
X117588987Y-72341859D01*
X117667804Y-72205345D01*
X117736324Y-72039921D01*
X117778185Y-71938860D01*
X117778185Y-71938857D01*
X117778191Y-71938845D01*
X117852849Y-71660217D01*
X117890500Y-71374228D01*
X117890500Y-71085772D01*
X117852849Y-70799783D01*
X117778191Y-70521155D01*
X117778186Y-70521145D01*
X117778185Y-70521139D01*
X117667808Y-70254663D01*
X117667800Y-70254647D01*
X117533480Y-70022000D01*
X117517007Y-69954100D01*
X117533480Y-69898000D01*
X117667800Y-69665352D01*
X117667808Y-69665336D01*
X117778185Y-69398860D01*
X117778185Y-69398857D01*
X117778191Y-69398845D01*
X117852849Y-69120217D01*
X117890500Y-68834228D01*
X117890500Y-68585443D01*
X117910185Y-68518404D01*
X117962989Y-68472649D01*
X118032147Y-68462705D01*
X118095703Y-68491730D01*
G37*
%TD.AperFunction*%
%TA.AperFunction,Conductor*%
G36*
X124389474Y-71955921D02*
G01*
X124389475Y-71955921D01*
X124409289Y-71928651D01*
X124464619Y-71885985D01*
X124534232Y-71880007D01*
X124596027Y-71912613D01*
X124616993Y-71939536D01*
X124749751Y-72169479D01*
X124749754Y-72169484D01*
X124749756Y-72169486D01*
X124917370Y-72387926D01*
X124917376Y-72387933D01*
X125112066Y-72582623D01*
X125112073Y-72582629D01*
X125210491Y-72658147D01*
X125330521Y-72750249D01*
X125460324Y-72825191D01*
X125568971Y-72887919D01*
X125568976Y-72887921D01*
X125568979Y-72887923D01*
X125823368Y-72993295D01*
X126089334Y-73064560D01*
X126192186Y-73078100D01*
X126256081Y-73106366D01*
X126294553Y-73164690D01*
X126300000Y-73201039D01*
X126300000Y-73284447D01*
X126329548Y-73471002D01*
X126387914Y-73650637D01*
X126473666Y-73818933D01*
X126492116Y-73844328D01*
X127150000Y-73186444D01*
X127150000Y-73236078D01*
X127173852Y-73325095D01*
X127219930Y-73404905D01*
X127285095Y-73470070D01*
X127364905Y-73516148D01*
X127453922Y-73540000D01*
X127503552Y-73540000D01*
X126845669Y-74197882D01*
X126845670Y-74197883D01*
X126871059Y-74216329D01*
X127039362Y-74302085D01*
X127087016Y-74317569D01*
X127144691Y-74357006D01*
X127171890Y-74421365D01*
X127159975Y-74490211D01*
X127112731Y-74541687D01*
X127048698Y-74559500D01*
X124685514Y-74559500D01*
X124663832Y-74553133D01*
X124641303Y-74551351D01*
X124623073Y-74541165D01*
X124618475Y-74539815D01*
X124610455Y-74534202D01*
X124610213Y-74534018D01*
X124535156Y-74476425D01*
X124532342Y-74474800D01*
X124526553Y-74470398D01*
X124507987Y-74445202D01*
X124487917Y-74421188D01*
X124487428Y-74417302D01*
X124485106Y-74414150D01*
X124483110Y-74382923D01*
X124479208Y-74351863D01*
X124480811Y-74346958D01*
X124480649Y-74344422D01*
X124483055Y-74340092D01*
X124491128Y-74315399D01*
X124514755Y-74269030D01*
X124577990Y-74074417D01*
X124610000Y-73872317D01*
X124610000Y-73667682D01*
X124577990Y-73465582D01*
X124514755Y-73270968D01*
X124421859Y-73088650D01*
X124389474Y-73044077D01*
X124389474Y-73044076D01*
X123710000Y-73723551D01*
X123710000Y-73717339D01*
X123682741Y-73615606D01*
X123630080Y-73524394D01*
X123555606Y-73449920D01*
X123464394Y-73397259D01*
X123362661Y-73370000D01*
X123356446Y-73370000D01*
X124035922Y-72690524D01*
X124035921Y-72690523D01*
X123991359Y-72658147D01*
X123991350Y-72658141D01*
X123897819Y-72610485D01*
X123847023Y-72562511D01*
X123830228Y-72494690D01*
X123852765Y-72428555D01*
X123897820Y-72389515D01*
X123991346Y-72341861D01*
X123991347Y-72341861D01*
X124035921Y-72309474D01*
X123356447Y-71630000D01*
X123362661Y-71630000D01*
X123464394Y-71602741D01*
X123555606Y-71550080D01*
X123630080Y-71475606D01*
X123682741Y-71384394D01*
X123710000Y-71282661D01*
X123710000Y-71276447D01*
X124389474Y-71955921D01*
G37*
%TD.AperFunction*%
%TD*%
M02*
