M48
; DRILL file KiCad 10.0.2 date 2026-05-25T12:52:52
; FORMAT={-:-/ absolute / metric / decimal}
; #@! TF.CreationDate,2026-05-25T12:52:52-07:00
; #@! TF.GenerationSoftware,Kicad,Pcbnew,10.0.2
; #@! TF.FileFunction,Plated,1,2,PTH
FMAT,2
METRIC
; #@! TA.AperFunction,Plated,PTH,ComponentDrill
T1C0.600
; #@! TA.AperFunction,Plated,PTH,ComponentDrill
T2C0.700
; #@! TA.AperFunction,Plated,PTH,ComponentDrill
T3C0.800
; #@! TA.AperFunction,Plated,PTH,ComponentDrill
T4C1.200
%
G90
G05
T1
X81.44Y-70.88
X82.94Y-70.88
X86.69Y-75.13
X86.69Y-76.63
T2
X97.69Y-56.57
X97.69Y-64.19
X97.69Y-79.07
X97.69Y-86.69
X100.69Y-56.57
X100.69Y-64.19
X101.19Y-79.07
X101.19Y-86.69
X104.0Y-56.57
X104.0Y-64.19
X105.19Y-79.07
X105.19Y-86.69
X107.5Y-56.5
X107.5Y-64.12
X109.19Y-79.07
X109.19Y-86.69
X111.0Y-56.5
X111.0Y-64.12
X112.69Y-79.07
X112.69Y-86.69
X115.69Y-87.0
X123.31Y-87.0
X126.5Y-63.38
X126.5Y-71.0
X127.5Y-73.19
X127.5Y-80.81
X130.0Y-73.19
X130.0Y-80.81
X133.38Y-71.5
X134.07Y-67.0
X141.0Y-71.5
X141.69Y-67.0
T3
X76.03Y-56.88
X76.03Y-64.5
X76.99Y-79.88
X76.99Y-87.5
X78.57Y-56.88
X78.57Y-64.5
X79.53Y-79.88
X79.53Y-87.5
X81.11Y-56.88
X81.11Y-64.5
X82.07Y-79.88
X82.07Y-87.5
X83.65Y-56.88
X83.65Y-64.5
X84.61Y-79.88
X84.61Y-87.5
X86.19Y-56.88
X86.19Y-64.5
X87.15Y-79.88
X87.15Y-87.5
X88.73Y-56.88
X88.73Y-64.5
X89.69Y-79.88
X89.69Y-87.5
X91.27Y-56.88
X91.27Y-64.5
X92.23Y-79.88
X92.23Y-87.5
X115.69Y-63.61
X115.69Y-66.15
X115.69Y-68.69
X115.69Y-71.23
X115.69Y-73.77
X115.69Y-76.31
X115.69Y-78.85
X115.69Y-81.39
X123.31Y-63.61
X123.31Y-66.15
X123.31Y-68.69
X123.31Y-71.23
X123.31Y-73.77
X123.31Y-76.31
X123.31Y-78.85
X123.31Y-81.39
X131.3Y-54.88
X131.3Y-62.5
X133.84Y-54.88
X133.84Y-62.5
X136.38Y-54.88
X136.38Y-62.5
X138.92Y-54.88
X138.92Y-62.5
X141.46Y-54.88
X141.46Y-62.5
X144.0Y-54.88
X144.0Y-62.5
X146.54Y-54.88
X146.54Y-62.5
X149.08Y-54.88
X149.08Y-62.5
T4
X67.0Y-70.42
X67.0Y-72.96
X67.0Y-75.5
X144.5Y-76.5
X144.5Y-79.04
X144.5Y-81.58
M30
